<svg width="20" height="20" viewBox="0 0 20 20" fill="none" xmlns="http://www.w3.org/2000/svg">
<path d="M6.00098 13H15.001C15.551 13 16.001 13.45 16.001 14C16.001 14.55 15.551 15 15.001 15H5.00098C4.45098 15 4.00098 14.55 4.00098 14V4H2.00098C1.45098 4 1.00098 3.55 1.00098 3C1.00098 2.45 1.45098 2 2.00098 2H5.00098C5.55098 2 6.00098 2.45 6.00098 3V5H19.001L15.001 12H6.00098V13ZM5.50098 16C6.33098 16 7.00098 16.67 7.00098 17.5C7.00098 18.33 6.33098 19 5.50098 19C4.67098 19 4.00098 18.33 4.00098 17.5C4.00098 16.67 4.67098 16 5.50098 16ZM14.501 16C15.331 16 16.001 16.67 16.001 17.5C16.001 18.33 15.331 19 14.501 19C13.671 19 13.001 18.33 13.001 17.5C13.001 16.67 13.671 16 14.501 16Z" fill="#0FA958"/>
</svg>
