<svg width="80" height="80" viewBox="0 0 80 80" fill="none" xmlns="http://www.w3.org/2000/svg">
<g clip-path="url(#clip0_45_1455)">
<path d="M40.0004 80C60.8645 80 77.7782 63.0863 77.7782 42.2222C77.7782 21.3581 60.8645 4.44444 40.0004 4.44444C19.1363 4.44444 2.22266 21.3581 2.22266 42.2222C2.22266 63.0863 19.1363 80 40.0004 80Z" fill="#F4900C"/>
<path d="M40.0004 75.5556C60.8645 75.5556 77.7782 58.6419 77.7782 37.7778C77.7782 16.9137 60.8645 0 40.0004 0C19.1363 0 2.22266 16.9137 2.22266 37.7778C2.22266 58.6419 19.1363 75.5556 40.0004 75.5556Z" fill="#FFCC4D"/>
<path d="M39.9998 71.1111C57.182 71.1111 71.1109 57.1822 71.1109 40C71.1109 22.8178 57.182 8.88889 39.9998 8.88889C22.8176 8.88889 8.88867 22.8178 8.88867 40C8.88867 57.1822 22.8176 71.1111 39.9998 71.1111Z" fill="#FFE8B6"/>
<path d="M39.9998 68.8889C57.182 68.8889 71.1109 54.96 71.1109 37.7778C71.1109 20.5956 57.182 6.66667 39.9998 6.66667C22.8176 6.66667 8.88867 20.5956 8.88867 37.7778C8.88867 54.96 22.8176 68.8889 39.9998 68.8889Z" fill="#FFAC33"/>
<path d="M21.207 24.1244C21.207 22.9133 22.3959 22.4289 22.3959 22.4289L39.9026 14.2067L57.5759 22.4289C57.5759 22.4289 58.7937 22.7 58.7937 24.1333V25.5578H21.207V24.1244Z" fill="#FFE8B6"/>
<path d="M57.6196 28.5244C57.6196 27.2267 56.4974 26.1756 55.1152 26.1756H24.7308C23.3463 26.1756 22.3819 27.2267 22.3819 28.5244C22.3819 29.4067 22.8352 30.1667 23.5574 30.5689V32.0489H28.2552V30.8733H32.953V32.0489H37.6508V30.8733H42.3485V32.0489H47.0463V30.8733H51.7441V32.0489H56.4441V30.5089C57.1485 30.0911 57.6196 29.36 57.6196 28.5244ZM61.1419 53.3333C61.1419 53.8007 60.9562 54.2489 60.6257 54.5794C60.2952 54.9099 59.847 55.0956 59.3796 55.0956H20.6196C20.1523 55.0956 19.704 54.9099 19.3736 54.5794C19.0431 54.2489 18.8574 53.8007 18.8574 53.3333C18.8574 52.866 19.0431 52.4177 19.3736 52.0873C19.704 51.7568 20.1523 51.5711 20.6196 51.5711H59.3819C60.353 51.5711 61.1419 52.36 61.1419 53.3333Z" fill="#F4900C"/>
<path d="M58.7932 27.1111C58.7932 27.4229 58.6694 27.7219 58.4489 27.9424C58.2284 28.1628 57.9294 28.2867 57.6177 28.2867H22.3799C22.0806 28.2683 21.7996 28.1364 21.5942 27.918C21.3888 27.6995 21.2744 27.411 21.2744 27.1111C21.2744 26.8113 21.3888 26.5227 21.5942 26.3043C21.7996 26.0858 22.0806 25.954 22.3799 25.9356L57.6177 25.9422C57.7716 25.9416 57.9242 25.9714 58.0667 26.0299C58.2091 26.0883 58.3387 26.1743 58.4478 26.2829C58.557 26.3914 58.6437 26.5205 58.703 26.6626C58.7623 26.8047 58.7929 26.9571 58.7932 27.1111ZM27.0799 28.4756H52.9221V31.1111H27.0799V28.4756Z" fill="#F4900C"/>
<path d="M28.2537 46.2867C28.2537 47.5844 27.5515 48.6356 26.687 48.6356H25.1204C24.2559 48.6356 23.5537 47.5844 23.5537 46.2867V28.4778C23.5537 27.18 24.2559 26.1289 25.1204 26.1289H26.687C27.5515 26.1289 28.2537 27.18 28.2537 28.4778V46.2867ZM56.4448 46.2867C56.4448 47.5844 55.7448 48.6356 54.8782 48.6356H53.3115C52.447 48.6356 51.7448 47.5844 51.7448 46.2867V28.4778C51.7448 27.18 52.4448 26.1289 53.3115 26.1289H54.8782C55.7426 26.1289 56.4448 27.18 56.4448 28.4778V46.2867ZM37.6515 46.2867C37.6515 47.5844 36.9493 48.6356 36.0848 48.6356H34.5182C33.6537 48.6356 32.9515 47.5844 32.9515 46.2867V28.4778C32.9515 27.18 33.6537 26.1289 34.5182 26.1289H36.0848C36.9493 26.1289 37.6515 27.18 37.6515 28.4778V46.2867ZM47.047 46.2867C47.047 47.5844 46.3448 48.6356 45.4804 48.6356H43.9159C43.0515 48.6356 42.3493 47.5844 42.3493 46.2867V28.4778C42.3493 27.18 43.0515 26.1289 43.9159 26.1289H45.4804C46.3448 26.1289 47.047 27.18 47.047 28.4778V46.2867Z" fill="#FFD983"/>
<path d="M57.6196 47.46C57.6196 48.7578 56.5685 49.8089 55.2707 49.8089H24.7307C24.1078 49.8089 23.5103 49.5614 23.0698 49.1209C22.6293 48.6804 22.3818 48.083 22.3818 47.46C22.3818 46.837 22.6293 46.2396 23.0698 45.7991C23.5103 45.3586 24.1078 45.1111 24.7307 45.1111H55.2707C56.5663 45.1111 57.6196 46.1622 57.6196 47.46Z" fill="#FFCC4D"/>
<path d="M59.969 49.8089C59.969 51.1067 58.9179 52.1578 57.6201 52.1578H22.3801C21.7572 52.1578 21.1597 51.9103 20.7192 51.4698C20.2787 51.0293 20.0313 50.4319 20.0312 49.8089C20.0313 49.1859 20.2787 48.5885 20.7192 48.148C21.1597 47.7075 21.7572 47.46 22.3801 47.46H57.6179C58.9157 47.46 59.969 48.5111 59.969 49.8089Z" fill="#FFD983"/>
<path d="M61.1419 51.5711C61.1419 52.0385 60.9562 52.4867 60.6257 52.8172C60.2952 53.1477 59.847 53.3333 59.3796 53.3333H20.6196C20.3882 53.3333 20.1591 53.2878 19.9453 53.1992C19.7315 53.1106 19.5372 52.9808 19.3736 52.8172C19.2099 52.6536 19.0801 52.4593 18.9916 52.2455C18.903 52.0317 18.8574 51.8025 18.8574 51.5711C18.8574 51.3397 18.903 51.1105 18.9916 50.8967C19.0801 50.6829 19.2099 50.4887 19.3736 50.325C19.5372 50.1614 19.7315 50.0316 19.9453 49.943C20.1591 49.8545 20.3882 49.8089 20.6196 49.8089H59.3819C60.353 49.8089 61.1419 50.5978 61.1419 51.5711Z" fill="#FFD983"/>
<path d="M57.6196 27.3022C57.6196 26.0044 56.4974 24.9533 55.1152 24.9533H24.7307C23.3463 24.9533 22.3818 26.0044 22.3818 27.3022C22.3818 28.1844 22.8352 28.9444 23.5574 29.3467V30.8267H28.2552V29.6511H32.9529V30.8267H37.6507V29.6511H42.3485V30.8267H47.0463V29.6511H51.7441V30.8267H56.4441V29.2867C57.1485 28.8689 57.6196 28.1378 57.6196 27.3022Z" fill="#FFCC4D"/>
<path d="M21.207 25.4733C21.207 24.2622 22.3959 23.7778 22.3959 23.7778L39.9026 15.5556L57.5759 23.7778C57.5759 23.7778 58.7937 24.0489 58.7937 25.4822V26.1289H21.207V25.4733Z" fill="#FFD983"/>
<path d="M40.0003 18.54C40.0003 18.54 27.8781 24.2533 26.6692 24.7689C25.4581 25.2822 25.8625 26.1267 26.6714 26.1267H53.2714C54.5203 26.1267 54.2247 25.1733 53.2336 24.6578C52.2425 24.1444 40.0003 18.54 40.0003 18.54Z" fill="#FFAC33"/>
<path d="M58.7932 26.1267C58.7932 26.4384 58.6694 26.7375 58.4489 26.9579C58.2284 27.1784 57.9294 27.3022 57.6177 27.3022H22.3799C22.0806 27.2838 21.7996 27.1519 21.5942 26.9335C21.3888 26.7151 21.2744 26.4265 21.2744 26.1267C21.2744 25.8268 21.3888 25.5383 21.5942 25.3198C21.7996 25.1014 22.0806 24.9695 22.3799 24.9511L57.6177 24.9578C57.7716 24.9572 57.9242 24.987 58.0667 25.0454C58.2091 25.1039 58.3387 25.1899 58.4478 25.2984C58.557 25.407 58.6437 25.536 58.703 25.6782C58.7623 25.8203 58.7929 25.9727 58.7932 26.1267Z" fill="#FFD983"/>
</g>
<defs>
<clipPath id="clip0_45_1455">
<rect width="80" height="80" fill="white"/>
</clipPath>
</defs>
</svg>
