<svg width="23" height="22" viewBox="0 0 23 22" fill="none" xmlns="http://www.w3.org/2000/svg">
<g clip-path="url(#clip0_23_3451)">
<path d="M19.4062 15.6922C19.4062 19.7408 15.8844 19.7408 11.5 19.7408C7.11563 19.7408 3.59375 19.7408 3.59375 15.6922C3.59375 11.6437 7.15156 5.0188 11.5 5.0188C15.8484 5.0188 19.4062 11.6102 19.4062 15.6922Z" fill="#DBB471"/>
<path opacity="0.5" d="M19.4061 15.6923C19.4061 14.3205 19.0107 12.6475 18.292 11.0415C18.4357 12.0787 18.1482 13.919 14.7342 14.6216C9.88262 15.5919 12.3982 16.8634 10.4936 17.0307C8.87637 17.1645 4.56387 16.5622 3.70137 14.287C3.62949 14.7889 3.55762 15.2573 3.55762 15.7258C3.59355 19.7409 7.15137 19.7409 11.4998 19.7409C15.8482 19.7409 19.4061 19.7409 19.4061 15.6923Z" fill="#89664C"/>
<path d="M13.6202 13.7517C13.4764 13.0825 12.8655 12.8817 12.2186 12.8483V11.9114C12.3983 11.9783 12.6139 12.0787 12.7577 12.1791C13.0452 12.3464 13.3327 11.9114 13.0452 11.7441C12.7936 11.6103 12.5061 11.4765 12.2186 11.3761V10.2719C12.2186 9.93735 11.6796 9.93735 11.6796 10.2719V11.2423C11.3921 11.2088 11.1046 11.2088 10.8171 11.2423C10.7811 11.008 10.7092 10.7738 10.6374 10.5396C10.5655 10.205 10.0264 10.3389 10.1342 10.6734C10.2061 10.9077 10.2421 11.1419 10.3139 11.3761C10.278 11.3761 10.278 11.3761 10.2421 11.4095C9.52331 11.6772 9.05612 12.3464 9.59518 12.9821C9.84675 13.2833 10.1702 13.3836 10.5296 13.4505C10.5655 13.8855 10.5655 14.3205 10.5655 14.7555C10.3139 14.6216 10.0983 14.4209 9.91862 14.2536C9.66706 14.0194 9.30768 14.3874 9.52331 14.6216C9.84675 14.9562 10.2061 15.1904 10.5655 15.3577C10.5655 15.7258 10.6014 16.0938 10.6374 16.4619C10.6733 16.7965 11.2124 16.7965 11.1764 16.4619C11.1405 16.1273 11.1046 15.8261 11.1046 15.4916C11.3202 15.525 11.5358 15.525 11.7514 15.525C11.7874 15.8596 11.8233 16.1942 11.8592 16.5622C11.8952 16.8968 12.4342 16.8968 12.3983 16.5622C12.3624 16.1942 12.3264 15.8261 12.2905 15.4246C13.0811 15.157 13.7999 14.5882 13.6202 13.7517ZM11.6796 11.7441V12.8483C11.4999 12.8483 11.3561 12.8817 11.2124 12.8817H11.0327L10.9249 11.6772C11.1764 11.6772 11.428 11.7107 11.6796 11.7441ZM10.3858 12.8148C10.2421 12.7814 10.0983 12.681 9.95456 12.5806C9.63112 12.2795 10.0983 12.0118 10.3858 11.878C10.4217 12.2126 10.4577 12.5137 10.4936 12.8483C10.4577 12.8483 10.4217 12.8483 10.3858 12.8148ZM11.5717 14.9562C11.3921 14.9897 11.2483 14.9562 11.1046 14.9227C11.0686 14.4209 11.0686 13.919 11.0686 13.3836C11.2842 13.3836 11.4999 13.3502 11.7155 13.3502C11.7155 13.8855 11.7514 14.3874 11.7514 14.9227C11.6796 14.9562 11.6436 14.9562 11.5717 14.9562ZM12.7577 14.5882C12.6139 14.6885 12.4342 14.7555 12.2905 14.8224C12.2546 14.3205 12.2546 13.8521 12.2546 13.3502H12.4342C13.1171 13.484 13.2967 14.1866 12.7577 14.5882Z" fill="#89664C"/>
<path d="M12.2191 18.4025H11.3926V19.7409L14.7348 21.4138L22.2816 19.239V18.0679L19.5145 16.5623L12.2191 18.4025Z" fill="#699635"/>
<path d="M11.5 17.6329C11.5 17.6329 12.3625 18.9378 14.8063 20.0754C14.8063 20.0754 18.6156 19.9081 22.2812 17.6329C22.2812 17.6329 20.1609 16.6626 19.55 15.3911C19.55 15.3911 18.1125 17.2648 11.5 17.6329Z" fill="#83BF4F"/>
<path d="M9.88301 18.3691L10.6736 18.3356L10.7814 19.5736L7.65488 21.4139L0.143945 19.9082L0.0361328 18.804L2.5877 17.1646L9.88301 18.3691Z" fill="#699635"/>
<path d="M10.4937 17.5994C10.4937 17.5994 9.73906 18.9043 7.475 20.1423C7.475 20.1423 3.77344 20.2427 0 18.4024C0 18.4024 2.0125 17.3317 2.47969 16.0603C2.47969 16.0603 4.06094 17.7333 10.4937 17.5994Z" fill="#83BF4F"/>
<path d="M8.69648 17.9675C8.69648 17.9675 8.58867 18.2352 9.0918 18.2686L7.76211 19.3058C7.76211 19.3058 6.97148 19.2389 6.7918 19.7408C6.7918 19.7408 3.55742 19.4062 1.47305 18.5363C1.47305 18.5363 1.9043 18.2352 1.36523 18.0344C1.36523 18.0344 1.97617 17.6329 2.11992 17.2648C2.11992 17.2648 2.69492 17.3318 2.87461 16.9303C2.94648 16.8968 5.10273 18.1013 8.69648 17.9675Z" stroke="#699635" stroke-miterlimit="10"/>
<path d="M3.1623 18.436C3.53941 18.436 3.84512 18.2412 3.84512 18.001C3.84512 17.7608 3.53941 17.566 3.1623 17.566C2.7852 17.566 2.47949 17.7608 2.47949 18.001C2.47949 18.2412 2.7852 18.436 3.1623 18.436Z" fill="#699635"/>
<path d="M6.82773 17.4657C6.82773 17.4657 6.00117 18.4694 4.2043 19.8413L4.31211 20.7447L3.0543 20.477L2.98242 19.5067C2.98242 19.5067 4.81523 17.9341 5.21055 17.1645C5.17461 17.1645 5.82148 17.3653 6.82773 17.4657ZM15.1293 17.2315C15.1293 17.2315 15.4527 18.0345 17.8965 19.5067V20.477L19.298 20.0755V19.0717C19.298 19.0717 17.609 17.9676 16.6027 16.8634L15.1293 17.2315Z" fill="#F9F3D9"/>
<path d="M13.0813 16.1607L12.2906 16.1273L12.2188 17.4991L15.4172 19.4062L22.9281 17.4991L22.9641 16.2945L20.3406 14.5881L13.0813 16.1607Z" fill="#699635"/>
<path d="M12.4346 15.3243C12.4346 15.3243 13.2252 16.7296 15.5611 18.001C15.5611 18.001 19.2986 18.001 23.0002 15.8596C23.0002 15.8596 20.9518 14.7555 20.4486 13.3837C20.4486 13.3837 18.9033 15.2574 12.4346 15.3243Z" fill="#83BF4F"/>
<path d="M14.0516 15.6923C14.0516 15.6923 14.2313 15.96 13.6562 16.0604L15.1656 17.1645C15.1656 17.1645 16.0281 16.9638 16.3156 17.4322C16.3156 17.4322 19.9094 16.83 21.5625 16.0269C21.5625 16.0269 21.0234 15.7927 21.5625 15.4916C21.5625 15.4916 20.9156 14.9897 20.6641 14.6551C20.6641 14.6551 20.0531 14.8224 19.7297 14.4209C19.7297 14.4544 18.4359 15.525 14.0516 15.6923Z" stroke="#699635" stroke-miterlimit="10"/>
<path d="M16.8187 16.5288C16.675 16.6961 16.2078 16.763 15.8125 16.6626C15.4171 16.5622 15.2375 16.328 15.3812 16.1607C15.525 15.9934 15.9921 15.9265 16.3875 16.0269C16.7828 16.1273 16.9625 16.328 16.8187 16.5288Z" fill="#699635"/>
<path d="M16.0996 15.0565C16.0996 15.0565 16.9621 16.1272 18.7949 17.566L18.759 18.5697L20.0168 18.2351L20.0527 17.1644C20.0527 17.1644 18.184 15.4915 17.7168 14.6885C17.7527 14.6885 17.1418 14.9227 16.0996 15.0565Z" fill="#F9F3D9"/>
<path d="M16.5312 0.669181C16.5312 2.71018 13.6922 6.02263 11.5 6.02263C9.30781 6.02263 6.46875 3.04477 6.46875 1.00377C6.46875 -1.03723 6.79219 1.00377 8.98438 1.00377C9.30781 1.00377 10.8172 0 11.5 0C11.9672 0 13.2969 1.00377 14.0156 1.00377C15.9203 1.00377 16.5312 -0.869935 16.5312 0.669181Z" fill="#DBB471"/>
<path d="M10.853 4.45001C10.6374 4.58384 9.59523 4.48347 9.27179 4.71768C8.84054 5.01881 9.45148 5.72145 9.02023 6.15642C8.15773 6.95944 7.47492 7.86283 7.69054 8.36472C8.04992 9.23465 8.73273 6.75868 9.34367 7.69553C9.95461 8.63239 9.84679 7.05981 10.7812 7.86283C11.7155 8.66585 10.9249 6.42409 11.8234 7.3944C12.7218 8.36472 12.7577 9.46886 13.4046 9.46886C14.1593 9.46886 12.614 6.8256 13.6202 7.46132C14.6265 8.09704 15.7405 7.86283 14.7343 6.89252C14.4109 6.59139 13.9796 6.05604 13.4765 5.58761C13.2968 5.42032 13.4405 4.55038 13.2609 4.41655C13.0452 4.24925 12.5062 4.7846 12.2905 4.68422C11.8593 4.48347 12.003 4.85152 11.3562 4.95189C10.9249 5.08573 11.2843 4.18233 10.853 4.45001Z" fill="#89664C"/>
<path d="M6.72025 6.4241C8.12181 5.18612 10.6734 5.88876 12.1827 6.49102C13.6562 7.09328 14.5546 5.18612 13.6202 4.2158C13.0812 3.647 12.2187 4.31618 11.8952 4.71769C11.5359 5.1192 11.2484 5.55417 10.8531 5.95568C10.2781 6.55794 8.8765 6.05605 9.30775 5.21958C9.77493 4.34964 11.7515 5.35341 12.3984 5.52071C13.6562 5.8553 14.9859 5.98914 16.2437 5.55417C16.6749 5.42033 16.4952 4.75115 16.064 4.91844C14.6624 5.38687 13.2609 5.08574 11.9312 4.68423C11.2484 4.48348 10.1702 3.94813 9.4515 4.24926C7.40306 5.15266 9.30775 7.72901 11.0327 6.72523C11.4281 6.49102 11.6796 6.12297 11.9671 5.78838C12.1468 5.58763 13.0452 4.31618 13.2609 4.9519C13.3687 5.28649 13.2609 5.88876 12.8656 5.98913C12.614 6.08951 12.1109 5.75492 11.8593 5.688C11.3921 5.52071 10.9249 5.38687 10.4218 5.28649C9.09212 5.01882 7.29525 5.08574 6.25306 5.98913C5.89368 6.25681 6.39681 6.72523 6.72025 6.4241Z" fill="#E8E8E8"/>
<path d="M16.1 0.167295C15.7406 0.434968 15.0938 1.00377 14.0156 1.00377C13.2969 1.00377 11.9672 0 11.5 0C10.8172 0 9.30781 1.00377 8.98438 1.00377C7.79844 1.00377 7.15156 0.434968 6.82812 0.200754C6.82812 0.200754 7.22344 1.70641 8.44531 2.47597C9.34375 3.01131 9.23594 2.37559 9.70313 1.77333C10.1703 1.17107 10.4938 0.869935 11.3203 2.37559C11.7516 3.21207 12.5781 0.100377 13.225 1.10415C14.4109 2.9444 14.8422 1.94063 16.1 0.167295Z" fill="#89664C"/>
<path d="M18.8317 17.5325L18.7958 18.5363L20.0536 18.2017L20.0895 17.131C20.0895 17.1644 19.3348 17.4321 18.8317 17.5325ZM17.8973 19.54V20.5103L19.2989 20.1088V19.1051C19.2629 19.0716 18.9036 19.2724 17.8973 19.54ZM4.20513 19.8077L4.31294 20.7446L3.05513 20.4769L2.98325 19.5066C2.94732 19.5066 3.45044 19.6739 4.20513 19.8077Z" fill="#DBB471"/>
</g>
<defs>
<clipPath id="clip0_23_3451">
<rect width="23" height="21.4138" fill="white"/>
</clipPath>
</defs>
</svg>
