<svg width="19" height="19" viewBox="0 0 19 19" fill="none" xmlns="http://www.w3.org/2000/svg">
<path d="M17.1012 11.8094C17.2487 11.8094 17.3684 11.6916 17.3684 11.5463C17.3684 11.401 17.2487 11.2832 17.1012 11.2832C16.9536 11.2832 16.834 11.401 16.834 11.5463C16.834 11.6916 16.9536 11.8094 17.1012 11.8094Z" stroke="#F16723" stroke-miterlimit="10" stroke-linecap="round" stroke-linejoin="round"/>
<path d="M2.2873 14.8785C2.33649 14.8785 2.37637 14.8392 2.37637 14.7908C2.37637 14.7424 2.33649 14.7031 2.2873 14.7031C2.23812 14.7031 2.19824 14.7424 2.19824 14.7908C2.19824 14.8392 2.23812 14.8785 2.2873 14.8785Z" fill="#231F20"/>
<path d="M1.81172 5.99228C1.86091 5.99228 1.90078 5.95302 1.90078 5.90459C1.90078 5.85616 1.86091 5.81689 1.81172 5.81689C1.76253 5.81689 1.72266 5.85616 1.72266 5.90459C1.72266 5.95302 1.76253 5.99228 1.81172 5.99228Z" fill="#231F20"/>
<path d="M17.3088 4.82285C17.358 4.82285 17.3979 4.78358 17.3979 4.73515C17.3979 4.68672 17.358 4.64746 17.3088 4.64746C17.2596 4.64746 17.2197 4.68672 17.2197 4.73515C17.2197 4.78358 17.2596 4.82285 17.3088 4.82285Z" fill="#231F20"/>
<path d="M6.68086 0.759857C6.73005 0.759857 6.76992 0.720596 6.76992 0.672165C6.76992 0.623734 6.73005 0.584473 6.68086 0.584473C6.63167 0.584473 6.5918 0.623734 6.5918 0.672165C6.5918 0.720596 6.63167 0.759857 6.68086 0.759857Z" fill="#231F20"/>
<path d="M16.715 10.377C16.7642 10.377 16.8041 10.3378 16.8041 10.2894C16.8041 10.2409 16.7642 10.2017 16.715 10.2017C16.6659 10.2017 16.626 10.2409 16.626 10.2894C16.626 10.3378 16.6659 10.377 16.715 10.377Z" fill="#231F20"/>
<path d="M17.5168 14.2061C17.566 14.2061 17.6059 14.1669 17.6059 14.1185C17.6059 14.07 17.566 14.0308 17.5168 14.0308C17.4676 14.0308 17.4277 14.07 17.4277 14.1185C17.4277 14.1669 17.4676 14.2061 17.5168 14.2061Z" fill="#231F20"/>
<path d="M2.9998 1.81238C3.19656 1.81238 3.35605 1.65533 3.35605 1.46161C3.35605 1.26788 3.19656 1.11084 2.9998 1.11084C2.80305 1.11084 2.64355 1.26788 2.64355 1.46161C2.64355 1.65533 2.80305 1.81238 2.9998 1.81238Z" stroke="#FBD108" stroke-miterlimit="10" stroke-linecap="round" stroke-linejoin="round"/>
<path d="M1.51465 12.3939H2.1084M1.81152 12.6569V12.1016" stroke="#F16723" stroke-miterlimit="10" stroke-linecap="round" stroke-linejoin="round"/>
<path d="M16.8336 3.77096C16.8992 3.77096 16.9523 3.71861 16.9523 3.65403C16.9523 3.58946 16.8992 3.53711 16.8336 3.53711C16.768 3.53711 16.7148 3.58946 16.7148 3.65403C16.7148 3.71861 16.768 3.77096 16.8336 3.77096Z" fill="#231F20"/>
<path d="M16.418 15.5213H17.0117M16.7148 15.8136V15.229" stroke="#4D9AD4" stroke-miterlimit="10" stroke-linecap="round" stroke-linejoin="round"/>
<path d="M15.7061 4.94003L15.617 4.88157V1.9585H5.04824C4.21699 1.9585 3.53418 2.6308 3.53418 3.44927V16.8662C3.53418 17.5385 4.06855 18.0646 4.75137 18.0646H14.5779C15.2607 18.0646 15.7951 17.5385 15.7951 16.8662V4.96927L15.7061 4.94003Z" fill="white"/>
<path d="M15.7354 4.94003L15.6463 4.88157V1.9585H6.50254C5.76035 1.9585 5.19629 2.6308 5.19629 3.44927V16.8662C5.19629 17.5385 5.67129 18.0646 6.23535 18.0646H14.726C15.29 18.0646 15.765 17.5385 15.765 16.8662V4.96927L15.7354 4.94003Z" fill="#3768A4"/>
<path d="M18.8705 4.96189L18.7402 4.90381V2H5.66821C4.62592 2 3.80078 2.66788 3.80078 3.48094V16.8094C3.80078 17.4773 4.45221 18 5.32078 18H17.4808C18.3059 18 19.0008 17.4773 19.0008 16.8094V4.99093L18.8705 4.96189Z" fill="#4D9AD4"/>
<path d="M15.6166 4.96939V3.18631C15.6166 2.894 15.3791 2.66016 15.0822 2.66016H5.10723C4.42441 2.66016 3.86035 3.21554 3.86035 3.88785V4.414C3.86035 4.414 4.27598 4.94016 5.22598 4.96939C6.17598 4.99862 15.6166 4.96939 15.6166 4.96939Z" fill="white"/>
<path d="M4.78027 14.1187V15.4633" stroke="white" stroke-width="1.5" stroke-miterlimit="10" stroke-linecap="round"/>
<path d="M3.53418 6.92786V3.65401M3.53418 8.36017V7.48324M15.7951 12.1602V16.9248C15.7951 17.5971 15.2607 18.1232 14.5779 18.1232H4.75137C4.06855 18.1232 3.53418 17.5971 3.53418 16.9248V8.91555M15.7951 11.5463V4.99863H5.04824C4.21699 4.99863 3.53418 4.32632 3.53418 3.50786C3.53418 2.6894 4.21699 2.01709 5.04824 2.01709H15.617V4.94017" stroke="#231F20" stroke-width="1.5" stroke-miterlimit="10" stroke-linecap="round" stroke-linejoin="round"/>
<path d="M15.6166 4.99868V3.21561C15.6166 2.9233 15.3791 2.68945 15.0822 2.68945H5.10723C4.42441 2.68945 3.86035 3.24484 3.86035 3.91715V4.4433" stroke="#231F20" stroke-width="1.5" stroke-miterlimit="10" stroke-linecap="round" stroke-linejoin="round"/>
<path d="M5.78965 5.729C5.22559 5.729 4.78027 6.16747 4.78027 6.72285M4.78027 7.249V7.45362" stroke="white" stroke-width="1.5" stroke-miterlimit="10" stroke-linecap="round"/>
<path d="M11.1936 10.0554H7.89824C7.54199 10.0554 7.24512 9.76313 7.24512 9.41236V8.00929C7.24512 7.65852 7.54199 7.36621 7.89824 7.36621H11.1936C11.5498 7.36621 11.8467 7.65852 11.8467 8.00929V9.41236C11.8764 9.76313 11.5795 10.0554 11.1936 10.0554Z" fill="white"/>
<path d="M13.5088 0.964671H14.1025M13.8057 1.22775V0.672363" stroke="#FBD108" stroke-miterlimit="10" stroke-linecap="round" stroke-linejoin="round"/>
</svg>
