<svg width="24" height="24" viewBox="0 0 24 24" fill="none" xmlns="http://www.w3.org/2000/svg">
<g filter="url(#filter0_iii_622_5164)">
<path d="M19.3874 2.02125C19.4452 1.96575 19.5337 1.95 19.5952 2.001C19.7249 2.1075 19.8517 2.29575 19.8517 2.595V19.5022C19.8517 20.3476 19.5158 21.1584 18.9181 21.7561C18.3203 22.3539 17.5095 22.6897 16.6642 22.6897H5.57766V22.0687H4.91016V2.4435C4.92273 2.34996 4.95422 2.25996 5.0027 2.17899C5.05118 2.09801 5.11564 2.02775 5.19216 1.9725C5.25216 1.92975 5.33316 1.9455 5.38716 1.9965L6.08616 2.65125C6.14256 2.70405 6.21717 2.73306 6.29443 2.73222C6.3717 2.73138 6.44566 2.70076 6.50091 2.64675L7.28241 1.884C7.33937 1.82814 7.4157 1.79641 7.49548 1.79543C7.57526 1.79446 7.65234 1.8243 7.71066 1.87875L8.53566 2.65125C8.59206 2.70405 8.66667 2.73306 8.74393 2.73222C8.8212 2.73138 8.89516 2.70076 8.95041 2.64675L9.73191 1.884C9.78887 1.82814 9.8652 1.79641 9.94498 1.79543C10.0248 1.79446 10.1018 1.8243 10.1602 1.87875L10.9852 2.65125C11.0415 2.70383 11.116 2.7327 11.1931 2.73186C11.2701 2.73102 11.3439 2.70054 11.3992 2.64675L12.1814 1.884C12.2383 1.82836 12.3145 1.79677 12.3941 1.79579C12.4737 1.79481 12.5506 1.82452 12.6089 1.87875L13.4339 2.65125C13.4903 2.70405 13.5649 2.73306 13.6422 2.73222C13.7194 2.73138 13.7934 2.70076 13.8487 2.64675L14.6302 1.884C14.6871 1.82814 14.7634 1.79641 14.8432 1.79543C14.923 1.79446 15.0001 1.8243 15.0584 1.87875L15.8834 2.65125C15.9398 2.70405 16.0144 2.73306 16.0917 2.73222C16.1689 2.73138 16.2429 2.70076 16.2982 2.64675L17.0797 1.884C17.1366 1.82814 17.2129 1.79641 17.2927 1.79543C17.3725 1.79446 17.4496 1.8243 17.5079 1.87875L18.3329 2.65125C18.3893 2.70383 18.4637 2.7327 18.5408 2.73186C18.6179 2.73102 18.6917 2.70054 18.7469 2.64675L19.3874 2.02125Z" fill="url(#paint0_linear_622_5164)"/>
<path d="M19.3874 2.02125C19.4452 1.96575 19.5337 1.95 19.5952 2.001C19.7249 2.1075 19.8517 2.29575 19.8517 2.595V19.5022C19.8517 20.3476 19.5158 21.1584 18.9181 21.7561C18.3203 22.3539 17.5095 22.6897 16.6642 22.6897H5.57766V22.0687H4.91016V2.4435C4.92273 2.34996 4.95422 2.25996 5.0027 2.17899C5.05118 2.09801 5.11564 2.02775 5.19216 1.9725C5.25216 1.92975 5.33316 1.9455 5.38716 1.9965L6.08616 2.65125C6.14256 2.70405 6.21717 2.73306 6.29443 2.73222C6.3717 2.73138 6.44566 2.70076 6.50091 2.64675L7.28241 1.884C7.33937 1.82814 7.4157 1.79641 7.49548 1.79543C7.57526 1.79446 7.65234 1.8243 7.71066 1.87875L8.53566 2.65125C8.59206 2.70405 8.66667 2.73306 8.74393 2.73222C8.8212 2.73138 8.89516 2.70076 8.95041 2.64675L9.73191 1.884C9.78887 1.82814 9.8652 1.79641 9.94498 1.79543C10.0248 1.79446 10.1018 1.8243 10.1602 1.87875L10.9852 2.65125C11.0415 2.70383 11.116 2.7327 11.1931 2.73186C11.2701 2.73102 11.3439 2.70054 11.3992 2.64675L12.1814 1.884C12.2383 1.82836 12.3145 1.79677 12.3941 1.79579C12.4737 1.79481 12.5506 1.82452 12.6089 1.87875L13.4339 2.65125C13.4903 2.70405 13.5649 2.73306 13.6422 2.73222C13.7194 2.73138 13.7934 2.70076 13.8487 2.64675L14.6302 1.884C14.6871 1.82814 14.7634 1.79641 14.8432 1.79543C14.923 1.79446 15.0001 1.8243 15.0584 1.87875L15.8834 2.65125C15.9398 2.70405 16.0144 2.73306 16.0917 2.73222C16.1689 2.73138 16.2429 2.70076 16.2982 2.64675L17.0797 1.884C17.1366 1.82814 17.2129 1.79641 17.2927 1.79543C17.3725 1.79446 17.4496 1.8243 17.5079 1.87875L18.3329 2.65125C18.3893 2.70383 18.4637 2.7327 18.5408 2.73186C18.6179 2.73102 18.6917 2.70054 18.7469 2.64675L19.3874 2.02125Z" fill="url(#paint1_radial_622_5164)"/>
</g>
<g filter="url(#filter1_ii_622_5164)">
<path d="M13.9784 19.7139C13.9784 19.515 13.8994 19.3242 13.7587 19.1835C13.6181 19.0429 13.4273 18.9639 13.2284 18.9639H3.40566C3.20807 18.9639 3.01856 19.0423 2.87877 19.182C2.73899 19.3216 2.66036 19.511 2.66016 19.7086C2.66016 20.1001 2.73727 20.4878 2.88709 20.8495C3.03691 21.2112 3.25651 21.5398 3.53334 21.8167C3.81018 22.0935 4.13883 22.3131 4.50053 22.4629C4.86223 22.6128 5.2499 22.6899 5.64141 22.6899H16.2539C14.4569 22.5309 13.9964 20.7789 13.9784 19.7799V19.7139Z" fill="url(#paint2_linear_622_5164)"/>
<path d="M13.9784 19.7139C13.9784 19.515 13.8994 19.3242 13.7587 19.1835C13.6181 19.0429 13.4273 18.9639 13.2284 18.9639H3.40566C3.20807 18.9639 3.01856 19.0423 2.87877 19.182C2.73899 19.3216 2.66036 19.511 2.66016 19.7086C2.66016 20.1001 2.73727 20.4878 2.88709 20.8495C3.03691 21.2112 3.25651 21.5398 3.53334 21.8167C3.81018 22.0935 4.13883 22.3131 4.50053 22.4629C4.86223 22.6128 5.2499 22.6899 5.64141 22.6899H16.2539C14.4569 22.5309 13.9964 20.7789 13.9784 19.7799V19.7139Z" fill="url(#paint3_linear_622_5164)"/>
</g>
<path d="M16.8922 4.77246H7.89291C7.48822 4.77246 7.16016 5.10036 7.16016 5.50484C7.16016 5.90932 7.48822 6.23721 7.89291 6.23721H16.8922C17.2968 6.23721 17.6249 5.90932 17.6249 5.50484C17.6249 5.10036 17.2968 4.77246 16.8922 4.77246Z" fill="#97939D"/>
<path d="M13.4767 7.74805H7.54716C7.33342 7.74805 7.16016 7.92114 7.16016 8.13467C7.16016 8.3482 7.33342 8.5213 7.54716 8.5213H13.4767C13.6904 8.5213 13.8637 8.3482 13.8637 8.13467C13.8637 7.92114 13.6904 7.74805 13.4767 7.74805Z" fill="#97939D"/>
<path d="M13.4767 9.9751H7.54716C7.33342 9.9751 7.16016 10.1482 7.16016 10.3617C7.16016 10.5752 7.33342 10.7483 7.54716 10.7483H13.4767C13.6904 10.7483 13.8637 10.5752 13.8637 10.3617C13.8637 10.1482 13.6904 9.9751 13.4767 9.9751Z" fill="#97939D"/>
<path d="M13.4767 12.2432H7.54716C7.33342 12.2432 7.16016 12.4163 7.16016 12.6298C7.16016 12.8433 7.33342 13.0164 7.54716 13.0164H13.4767C13.6904 13.0164 13.8637 12.8433 13.8637 12.6298C13.8637 12.4163 13.6904 12.2432 13.4767 12.2432Z" fill="#97939D"/>
<path d="M13.4767 14.5103H7.54716C7.33342 14.5103 7.16016 14.6834 7.16016 14.8969C7.16016 15.1104 7.33342 15.2835 7.54716 15.2835H13.4767C13.6904 15.2835 13.8637 15.1104 13.8637 14.8969C13.8637 14.6834 13.6904 14.5103 13.4767 14.5103Z" fill="#97939D"/>
<path d="M13.4767 16.7773H7.54716C7.33342 16.7773 7.16016 16.9504 7.16016 17.164C7.16016 17.3775 7.33342 17.5506 7.54716 17.5506H13.4767C13.6904 17.5506 13.8637 17.3775 13.8637 17.164C13.8637 16.9504 13.6904 16.7773 13.4767 16.7773Z" fill="#97929F"/>
<path d="M17.2377 9.9751H15.0237C14.81 9.9751 14.6367 10.1482 14.6367 10.3617C14.6367 10.5752 14.81 10.7483 15.0237 10.7483H17.2377C17.4515 10.7483 17.6247 10.5752 17.6247 10.3617C17.6247 10.1482 17.4515 9.9751 17.2377 9.9751Z" fill="#97939D"/>
<path d="M17.2377 7.74805H15.0237C14.81 7.74805 14.6367 7.92114 14.6367 8.13467C14.6367 8.3482 14.81 8.5213 15.0237 8.5213H17.2377C17.4515 8.5213 17.6247 8.3482 17.6247 8.13467C17.6247 7.92114 17.4515 7.74805 17.2377 7.74805Z" fill="#97939D"/>
<path d="M17.2377 12.2432H15.0237C14.81 12.2432 14.6367 12.4163 14.6367 12.6298C14.6367 12.8433 14.81 13.0164 15.0237 13.0164H17.2377C17.4515 13.0164 17.6247 12.8433 17.6247 12.6298C17.6247 12.4163 17.4515 12.2432 17.2377 12.2432Z" fill="#97939D"/>
<path d="M17.2377 14.5103H15.0237C14.81 14.5103 14.6367 14.6834 14.6367 14.8969C14.6367 15.1104 14.81 15.2835 15.0237 15.2835H17.2377C17.4515 15.2835 17.6247 15.1104 17.6247 14.8969C17.6247 14.6834 17.4515 14.5103 17.2377 14.5103Z" fill="#97939D"/>
<path d="M17.2377 16.7773H15.0237C14.81 16.7773 14.6367 16.9504 14.6367 17.164C14.6367 17.3775 14.81 17.5506 15.0237 17.5506H17.2377C17.4515 17.5506 17.6247 17.3775 17.6247 17.164C17.6247 16.9504 17.4515 16.7773 17.2377 16.7773Z" fill="#9893A0"/>
<defs>
<filter id="filter0_iii_622_5164" x="4.76016" y="1.64541" width="15.2414" height="21.0445" filterUnits="userSpaceOnUse" color-interpolation-filters="sRGB">
<feFlood flood-opacity="0" result="BackgroundImageFix"/>
<feBlend mode="normal" in="SourceGraphic" in2="BackgroundImageFix" result="shape"/>
<feColorMatrix in="SourceAlpha" type="matrix" values="0 0 0 0 0 0 0 0 0 0 0 0 0 0 0 0 0 0 127 0" result="hardAlpha"/>
<feOffset dx="-0.15" dy="-0.15"/>
<feGaussianBlur stdDeviation="0.175"/>
<feComposite in2="hardAlpha" operator="arithmetic" k2="-1" k3="1"/>
<feColorMatrix type="matrix" values="0 0 0 0 1 0 0 0 0 1 0 0 0 0 1 0 0 0 1 0"/>
<feBlend mode="normal" in2="shape" result="effect1_innerShadow_622_5164"/>
<feColorMatrix in="SourceAlpha" type="matrix" values="0 0 0 0 0 0 0 0 0 0 0 0 0 0 0 0 0 0 127 0" result="hardAlpha"/>
<feOffset dx="-0.15"/>
<feGaussianBlur stdDeviation="0.125"/>
<feComposite in2="hardAlpha" operator="arithmetic" k2="-1" k3="1"/>
<feColorMatrix type="matrix" values="0 0 0 0 1 0 0 0 0 1 0 0 0 0 1 0 0 0 1 0"/>
<feBlend mode="normal" in2="effect1_innerShadow_622_5164" result="effect2_innerShadow_622_5164"/>
<feColorMatrix in="SourceAlpha" type="matrix" values="0 0 0 0 0 0 0 0 0 0 0 0 0 0 0 0 0 0 127 0" result="hardAlpha"/>
<feOffset dx="0.15"/>
<feGaussianBlur stdDeviation="0.175"/>
<feComposite in2="hardAlpha" operator="arithmetic" k2="-1" k3="1"/>
<feColorMatrix type="matrix" values="0 0 0 0 0.733333 0 0 0 0 0.713726 0 0 0 0 0.764706 0 0 0 1 0"/>
<feBlend mode="normal" in2="effect2_innerShadow_622_5164" result="effect3_innerShadow_622_5164"/>
</filter>
<filter id="filter1_ii_622_5164" x="2.51016" y="18.9639" width="13.8438" height="3.72607" filterUnits="userSpaceOnUse" color-interpolation-filters="sRGB">
<feFlood flood-opacity="0" result="BackgroundImageFix"/>
<feBlend mode="normal" in="SourceGraphic" in2="BackgroundImageFix" result="shape"/>
<feColorMatrix in="SourceAlpha" type="matrix" values="0 0 0 0 0 0 0 0 0 0 0 0 0 0 0 0 0 0 127 0" result="hardAlpha"/>
<feOffset dx="-0.15"/>
<feGaussianBlur stdDeviation="0.125"/>
<feComposite in2="hardAlpha" operator="arithmetic" k2="-1" k3="1"/>
<feColorMatrix type="matrix" values="0 0 0 0 1 0 0 0 0 1 0 0 0 0 1 0 0 0 1 0"/>
<feBlend mode="normal" in2="shape" result="effect1_innerShadow_622_5164"/>
<feColorMatrix in="SourceAlpha" type="matrix" values="0 0 0 0 0 0 0 0 0 0 0 0 0 0 0 0 0 0 127 0" result="hardAlpha"/>
<feOffset dx="0.1"/>
<feGaussianBlur stdDeviation="0.2"/>
<feComposite in2="hardAlpha" operator="arithmetic" k2="-1" k3="1"/>
<feColorMatrix type="matrix" values="0 0 0 0 0.666667 0 0 0 0 0.6 0 0 0 0 0.74902 0 0 0 1 0"/>
<feBlend mode="normal" in2="effect1_innerShadow_622_5164" result="effect2_innerShadow_622_5164"/>
</filter>
<linearGradient id="paint0_linear_622_5164" x1="6.37491" y1="12.7522" x2="19.8517" y2="12.7522" gradientUnits="userSpaceOnUse">
<stop stop-color="#DFD8E8"/>
<stop offset="1" stop-color="#E0DBEA"/>
</linearGradient>
<radialGradient id="paint1_radial_622_5164" cx="0" cy="0" r="1" gradientUnits="userSpaceOnUse" gradientTransform="translate(14.2034 23.7675) rotate(-60.0013) scale(5.25021 8.2323)">
<stop stop-color="#F9F3FE"/>
<stop offset="1" stop-color="#F9F3FE" stop-opacity="0"/>
</radialGradient>
<linearGradient id="paint2_linear_622_5164" x1="9.45666" y1="18.9639" x2="9.45666" y2="22.6899" gradientUnits="userSpaceOnUse">
<stop stop-color="#DCD4E8"/>
<stop offset="1" stop-color="#C9BADD"/>
</linearGradient>
<linearGradient id="paint3_linear_622_5164" x1="11.4374" y1="22.6899" x2="11.4374" y2="20.8269" gradientUnits="userSpaceOnUse">
<stop stop-color="#A58BC5"/>
<stop offset="1" stop-color="#C7B7DD" stop-opacity="0"/>
</linearGradient>
</defs>
</svg>
