<svg width="25" height="24" viewBox="0 0 25 24" fill="none" xmlns="http://www.w3.org/2000/svg">
<path d="M12.6416 14.355C12.6416 14.355 14.317 0.74625 16.3189 0C16.6438 0.000396686 16.9553 0.124451 17.1851 0.344968C17.4149 0.565484 17.5442 0.864468 17.5447 1.17638V22.7861C17.5444 23.0981 17.4152 23.3972 17.1853 23.6178C16.9555 23.8383 16.6439 23.9623 16.3189 23.9625C16.158 23.9626 15.9987 23.9322 15.8501 23.873C15.7014 23.8139 15.5664 23.7273 15.4526 23.618C15.3389 23.5088 15.2487 23.379 15.1872 23.2363C15.1257 23.0936 15.0942 22.9406 15.0943 22.7861V15.4466C14.0311 15.3206 12.7232 15.0206 12.6416 14.3539" fill="#A7A8AC"/>
<path d="M13.4619 13.9951C13.4619 13.9951 14.8568 1.58635 16.5236 0.907227C17.0873 0.907227 17.5439 1.38835 17.5439 1.97973V21.6819C17.5439 22.2736 17.0873 22.754 16.5236 22.754C15.9604 22.754 15.5033 22.2736 15.5033 21.6819V14.9907C14.6182 14.8756 13.5307 14.6022 13.4619 13.9951Z" fill="#D1D2D3"/>
<path d="M11.8053 0.0145352C11.3447 0.0145352 10.9725 0.740535 10.9725 1.02779V3.73191C10.9424 3.73191 10.9123 3.71579 10.8826 3.71579H10.4408V1.02741C10.4408 0.74016 10.067 0.0141602 9.60566 0.0141602C9.14356 0.0141602 8.76973 0.74016 8.76973 1.02741V3.71541H8.39863C8.36816 3.71541 8.34043 3.72779 8.31035 3.73079V1.02741C8.31035 0.74016 7.93652 0.0141602 7.47598 0.0141602C7.01309 0.0141602 6.6416 0.740535 6.6416 1.02741V6.85491C6.6416 8.49704 7.72949 8.89791 8.39863 8.89791H8.5752V22.7144C8.5752 23.3969 9.05332 23.9478 9.6416 23.9478C10.2291 23.9478 10.7049 23.3969 10.7049 22.7144V8.89828H10.883C11.5518 8.89828 12.6412 8.89828 12.6412 6.85529V1.02741C12.6412 0.740535 12.2674 0.0145352 11.8053 0.0145352Z" fill="#A7A8AC"/>
<path d="M9.31621 8.28352C8.21582 7.34377 6.87637 7.98052 7.32246 0.0410156C6.9334 0.175266 6.6416 0.771516 6.6416 1.02577V6.85326C6.6416 8.49539 7.72949 8.89627 8.39863 8.89627H8.5752V22.7128C8.5752 23.261 8.8877 23.7095 9.31621 23.8711V8.28352Z" fill="#D1D2D3"/>
</svg>
