<svg width="20" height="18" viewBox="0 0 20 18" fill="none" xmlns="http://www.w3.org/2000/svg">
<path d="M12.8419 5.76739C12.1023 5.59196 11.0745 5.33398 10.2506 5.33398C6.18794 5.33398 2.89453 7.64628 2.89453 10.4987C2.89453 12.1378 3.98206 13.5986 5.67814 14.5448L5.2186 15.9315C5.10792 16.2655 5.38111 16.6025 5.76257 16.6025H7.43383C7.55688 16.6025 7.67661 16.566 7.77502 16.4984L9.09622 15.5912H11.4049L12.7261 16.4984C12.8245 16.566 12.9442 16.6025 13.0673 16.6025H14.7386C15.12 16.6025 15.3932 16.2655 15.2825 15.9315L14.823 14.5448C15.8334 13.9811 16.6279 13.2347 17.1051 12.3768" stroke="#FFCE56" stroke-width="2" stroke-linecap="round" stroke-linejoin="round"/>
<path d="M12.8418 5.7675L17.105 4.46729L17.0254 7.61233L18.9997 8.36793V11.4018L17.1752 12.2686" stroke="#FFCE56" stroke-width="2" stroke-linecap="round" stroke-linejoin="round"/>
<path d="M13.7891 9.66808C13.5275 9.66808 13.3154 9.474 13.3154 9.23467C13.3154 8.99535 13.5275 8.80127 13.7891 8.80127C14.0507 8.80127 14.2628 8.99535 14.2628 9.23467C14.2628 9.474 14.0507 9.66808 13.7891 9.66808Z" fill="#FFCE56" stroke="#FFCE56" stroke-width="2" stroke-linecap="round" stroke-linejoin="round"/>
<path d="M1 7.06738C1 7.06738 1 9.14772 2.89474 9.66781" stroke="#FFCE56" stroke-width="2" stroke-linecap="round" stroke-linejoin="round"/>
<path d="M11.2329 5.11991C11.3551 4.79776 11.4216 4.45108 11.4216 4.08993C11.4216 2.38341 9.93711 1 8.10584 1C6.27457 1 4.79004 2.38341 4.79004 4.08993C4.79004 4.90617 5.12966 5.64848 5.6844 6.20085" stroke="#FFCE56" stroke-width="2" stroke-linejoin="round"/>
</svg>
