<svg width="30" height="26" viewBox="0 0 30 26" fill="none" xmlns="http://www.w3.org/2000/svg">
<path d="M9.37598 4.3335H20.626V21.6668H9.37598V4.3335ZM5.62598 9.02794H9.37598V21.6668H5.62598V9.02794ZM20.626 9.02794H24.376V21.6668H20.626V9.02794Z" fill="white"/>
<path d="M12.293 15.8892H17.7096V21.6669H12.293V15.8892Z" fill="#92D3F5"/>
<path d="M18.126 8.30556H16.0426V6.5H13.9593V8.30556H11.876V10.1111H13.9593V11.9167H16.0426V10.1111H18.126V8.30556Z" fill="#EA5A47"/>
<path d="M7.08398 10.8335H7.91732V12.6391H7.08398V10.8335ZM7.08398 14.4446H7.91732V16.2502H7.08398V14.4446ZM7.08398 18.0557H7.91732V19.8613H7.08398V18.0557ZM22.084 10.8335H22.9173V12.6391H22.084V10.8335ZM22.084 14.4446H22.9173V16.2502H22.084V14.4446ZM22.084 18.0557H22.9173V19.8613H22.084V18.0557Z" stroke="#92D3F5" stroke-width="2" stroke-miterlimit="10" stroke-linecap="round" stroke-linejoin="round"/>
<path d="M20.626 21.6668V4.3335H9.37598V21.6668M20.626 21.6668H9.37598M20.626 21.6668H24.376V9.02794H20.626V21.6668ZM9.37598 21.6668V9.02794H5.62598V21.6668H9.37598Z" stroke="black" stroke-miterlimit="10" stroke-linecap="round" stroke-linejoin="round"/>
<path d="M15.0007 21.6667V15.8889M7.91732 12.6389H7.08398V10.8333M7.91732 16.25H7.08398V14.4444M7.91732 19.8611H7.08398V18.0556M22.9173 12.6389H22.084V10.8333M22.9173 16.25H22.084V14.4444M22.9173 19.8611H22.084V18.0556M12.2923 15.8889H17.709V21.6667H12.2923V15.8889ZM18.1257 8.30556H16.0423V6.5H13.959V8.30556H11.8757V10.1111H13.959V11.9167H16.0423V10.1111H18.1257V8.30556Z" stroke="black" stroke-miterlimit="10" stroke-linecap="round" stroke-linejoin="round"/>
</svg>
