<svg width="24" height="24" viewBox="0 0 24 24" fill="none" xmlns="http://www.w3.org/2000/svg">
<path d="M1.4198 9.90417L1.41714 9.90283C1.41714 9.90283 0.0498047 18.1808 0.0498047 19.3742C0.0498047 20.5902 0.945138 21.5755 2.0498 21.5755C2.50314 21.5755 2.91647 21.4035 3.2518 21.1235L10.0291 15.1648L1.4198 9.90417ZM22.5465 9.90417L22.5491 9.90283C22.5491 9.90283 23.9165 18.1808 23.9165 19.3742C23.9165 20.5902 23.0211 21.5755 21.9165 21.5755C21.4631 21.5755 21.0498 21.4035 20.7145 21.1235L13.9371 15.1648L22.5465 9.90417Z" fill="#31373D"/>
<path d="M17.3171 16.034C20.4467 16.034 22.9837 13.497 22.9837 10.3674C22.9837 7.23774 20.4467 4.70068 17.3171 4.70068C14.1874 4.70068 11.6504 7.23774 11.6504 10.3674C11.6504 13.497 14.1874 16.034 17.3171 16.034Z" fill="#14171A"/>
<path d="M6.65007 16.034C9.77968 16.034 12.3167 13.497 12.3167 10.3674C12.3167 7.23774 9.77968 4.70068 6.65007 4.70068C3.52045 4.70068 0.983398 7.23774 0.983398 10.3674C0.983398 13.497 3.52045 16.034 6.65007 16.034Z" fill="#14171A"/>
<path d="M6.65039 4.70068H17.3171V15.9473H6.65039V4.70068Z" fill="#14171A"/>
<path d="M8.71712 18.8674C10.5581 18.8674 12.0505 17.375 12.0505 15.534C12.0505 13.6931 10.5581 12.2007 8.71712 12.2007C6.87617 12.2007 5.38379 13.6931 5.38379 15.534C5.38379 17.375 6.87617 18.8674 8.71712 18.8674Z" fill="#14171A"/>
<path d="M15.2503 18.8674C17.0913 18.8674 18.5837 17.375 18.5837 15.534C18.5837 13.6931 17.0913 12.2007 15.2503 12.2007C13.4094 12.2007 11.917 13.6931 11.917 15.534C11.917 17.375 13.4094 18.8674 15.2503 18.8674Z" fill="#14171A"/>
<path d="M15.25 17.5342C16.3546 17.5342 17.25 16.6387 17.25 15.5342C17.25 14.4296 16.3546 13.5342 15.25 13.5342C14.1454 13.5342 13.25 14.4296 13.25 15.5342C13.25 16.6387 14.1454 17.5342 15.25 17.5342Z" fill="#67757F"/>
<path d="M8.7168 17.5342C9.82137 17.5342 10.7168 16.6387 10.7168 15.5342C10.7168 14.4296 9.82137 13.5342 8.7168 13.5342C7.61223 13.5342 6.7168 14.4296 6.7168 15.5342C6.7168 16.6387 7.61223 17.5342 8.7168 17.5342Z" fill="#67757F"/>
<path d="M17.1566 8.49085C17.7468 8.49085 18.2252 8.01239 18.2252 7.42218C18.2252 6.83197 17.7468 6.35352 17.1566 6.35352C16.5663 6.35352 16.0879 6.83197 16.0879 7.42218C16.0879 8.01239 16.5663 8.49085 17.1566 8.49085Z" fill="#FFCC4D"/>
<path d="M17.1566 12.8068C17.7468 12.8068 18.2252 12.3283 18.2252 11.7381C18.2252 11.1479 17.7468 10.6694 17.1566 10.6694C16.5663 10.6694 16.0879 11.1479 16.0879 11.7381C16.0879 12.3283 16.5663 12.8068 17.1566 12.8068Z" fill="#77B255"/>
<path d="M14.9984 10.6486C15.5886 10.6486 16.067 10.1701 16.067 9.5799C16.067 8.98969 15.5886 8.51123 14.9984 8.51123C14.4081 8.51123 13.9297 8.98969 13.9297 9.5799C13.9297 10.1701 14.4081 10.6486 14.9984 10.6486Z" fill="#50A5E6"/>
<path d="M19.3148 10.6486C19.905 10.6486 20.3834 10.1701 20.3834 9.5799C20.3834 8.98969 19.905 8.51123 19.3148 8.51123C18.7246 8.51123 18.2461 8.98969 18.2461 9.5799C18.2461 10.1701 18.7246 10.6486 19.3148 10.6486Z" fill="#DD2E44"/>
<path d="M7.43167 8.34255V6.89721C7.43167 6.80792 7.3962 6.72229 7.33307 6.65915C7.26993 6.59602 7.1843 6.56055 7.09501 6.56055H6.05634C5.96705 6.56055 5.88142 6.59602 5.81828 6.65915C5.75514 6.72229 5.71967 6.80792 5.71967 6.89721V8.34255L6.57567 9.19921L7.43167 8.34255ZM5.71901 10.7625V12.2079C5.71901 12.3939 5.86967 12.5445 6.05567 12.5445H7.09434C7.18363 12.5445 7.26926 12.5091 7.3324 12.4459C7.39554 12.3828 7.43101 12.2972 7.43101 12.2079V10.7625L6.57501 9.90588L5.71901 10.7625ZM9.23167 8.69588H7.78634L6.92967 9.55255L7.78634 10.4092H9.23167C9.32091 10.409 9.40644 10.3735 9.46954 10.3104C9.53264 10.2473 9.56816 10.1618 9.56834 10.0725V9.03321C9.56834 8.94386 9.53289 8.85816 9.46977 8.79492C9.40666 8.73168 9.32103 8.69606 9.23167 8.69588ZM5.36567 8.69588H3.91967C3.83044 8.69606 3.74491 8.73158 3.68181 8.79468C3.61871 8.85778 3.58318 8.94331 3.58301 9.03255V10.0712C3.58301 10.2572 3.73367 10.4079 3.91967 10.4079H5.36501L6.22167 9.55121L5.36567 8.69588Z" fill="#8899A6"/>
</svg>
