<svg width="31" height="33" viewBox="0 0 31 33" fill="none" xmlns="http://www.w3.org/2000/svg">
<path d="M2.4707 22.5654H9.15481C9.77235 22.5654 10.0811 22.5654 10.3796 22.6172C10.4825 22.6341 10.5825 22.6558 10.681 22.6823C10.9707 22.7594 11.2397 22.8847 11.7749 23.1354C13.4702 23.9294 14.3186 24.3259 15.2361 24.4066C15.5463 24.4331 15.861 24.4331 16.1712 24.4066C17.0902 24.3259 17.9371 23.9294 19.6324 23.1354C20.1676 22.8847 20.4366 22.7594 20.7263 22.6823C20.8248 22.6558 20.9263 22.6341 21.0277 22.6172C21.3262 22.5654 21.635 22.5654 22.251 22.5654H28.9366V26.1803C28.9366 28.4528 28.9366 29.5878 28.075 30.2939C27.2134 31 25.8283 31 23.0553 31H8.35202C5.57898 31 4.19393 31 3.33232 30.2939C2.4707 29.5878 2.4707 28.4528 2.4707 26.1803V22.5654Z" fill="white" stroke="black" stroke-width="3"/>
<path d="M1.00006 22.5656C1.00006 22.8851 1.15497 23.1916 1.43071 23.4176C1.70645 23.6435 2.08043 23.7705 2.47038 23.7705C2.86034 23.7705 3.23432 23.6435 3.51006 23.4176C3.7858 23.1916 3.94071 22.8851 3.94071 22.5656H1.00006ZM27.466 22.5656C27.466 22.8851 27.6209 23.1916 27.8966 23.4176C28.1724 23.6435 28.5463 23.7705 28.9363 23.7705C29.3262 23.7705 29.7002 23.6435 29.976 23.4176C30.2517 23.1916 30.4066 22.8851 30.4066 22.5656H27.466ZM22.3198 12.926C21.9299 12.926 21.5559 13.0529 21.2801 13.2789C21.0044 13.5049 20.8495 13.8114 20.8495 14.1309C20.8495 14.4505 21.0044 14.757 21.2801 14.983C21.5559 15.2089 21.9299 15.3359 22.3198 15.3359V12.926ZM9.08686 15.3359C9.47682 15.3359 9.8508 15.2089 10.1265 14.983C10.4023 14.757 10.5572 14.4505 10.5572 14.1309C10.5572 13.8114 10.4023 13.5049 10.1265 13.2789C9.8508 13.0529 9.47682 12.926 9.08686 12.926V15.3359ZM24.9693 14.243L24.5253 15.3913L24.9664 14.243H24.9693ZM25.8398 16.8095L27.2057 19.3279L29.892 18.3482L28.5261 15.8311L25.8398 16.8095ZM4.25977 19.3134L5.85214 16.7095L3.22025 15.6311L1.6323 18.2374L4.26124 19.3146L4.25977 19.3134ZM1.00006 20.4232V22.5656H3.94071V20.4232H1.00006ZM27.466 20.3352V22.5656H30.4066V20.3364L27.466 20.3352ZM22.3198 15.3359H23.0712V12.926H22.3198V15.3359ZM8.55901 15.3359H9.08686V12.926H8.55901V15.3359ZM1.6323 18.2362C1.48379 18.4784 1.35293 18.688 1.25589 18.9146L4.02599 19.7195C4.09489 19.5805 4.1749 19.445 4.26271 19.3134L1.63083 18.2362H1.6323ZM3.94071 20.4232C3.94071 20.0954 3.94365 20.0316 3.95248 19.9749L1.03387 19.6785C0.997115 19.9159 1.00006 20.152 1.00006 20.4232H3.94071ZM1.25589 18.9146C1.14875 19.1619 1.07333 19.4181 1.03387 19.6785L3.95248 19.9749C3.96555 19.8878 3.9902 19.8022 4.02599 19.7195L1.25589 18.9146ZM27.2057 19.3279C27.3513 19.5978 27.3777 19.6508 27.3969 19.7002L30.1993 18.9712C30.1199 18.7652 30.0126 18.5724 29.892 18.3495L27.2057 19.3279ZM30.4066 20.3364C30.4066 20.093 30.4081 19.8797 30.3802 19.6653L27.4571 19.9303C27.4645 19.9822 27.466 20.04 27.466 20.3352L30.4066 20.3364ZM27.3969 19.7002C27.4257 19.7755 27.4454 19.853 27.4557 19.9315L30.3802 19.6653C30.3477 19.4296 30.2872 19.1971 30.1993 18.9712L27.3969 19.7002ZM28.5261 15.8311C28.1703 15.172 27.8762 14.5973 27.3895 14.1478L25.187 15.7432C25.3002 15.8492 25.4031 16.0046 25.8398 16.8095L28.5261 15.8311ZM23.0712 15.3359C24.1474 15.3359 24.3606 15.3491 24.5253 15.3913L25.4104 13.0935C24.712 12.9127 23.9489 12.926 23.0712 12.926V15.3359ZM27.3895 14.1478C26.8589 13.6556 26.1748 13.2911 25.4104 13.0935L24.5253 15.3913C24.7803 15.4572 25.01 15.5789 25.187 15.7432L27.3895 14.1478ZM5.8492 16.7083C6.30941 15.9564 6.4138 15.8118 6.52702 15.713L4.38916 14.0586C3.90689 14.478 3.59519 15.0166 3.22025 15.6311L5.8492 16.7083ZM8.56048 12.926C7.7224 12.926 6.99605 12.9139 6.32117 13.0802L7.17249 15.3877C7.32982 15.3479 7.53566 15.3359 8.55901 15.3359V12.926H8.56048ZM6.52849 15.713C6.70486 15.5604 6.92687 15.4483 7.17249 15.3877L6.32117 13.0802C5.58453 13.2628 4.91898 13.6001 4.39063 14.0586L6.52849 15.713Z" fill="black"/>
<path d="M15.5921 11.2701C18.4281 11.2701 20.7271 8.97106 20.7271 6.13505C20.7271 3.29904 18.4281 1 15.5921 1C12.7561 1 10.457 3.29904 10.457 6.13505C10.457 8.97106 12.7561 11.2701 15.5921 11.2701Z" fill="#FFCE56" stroke="#4C241D" stroke-width="1.7" stroke-linecap="round" stroke-linejoin="round"/>
<path d="M15.5926 9.72959C17.5778 9.72959 19.1871 8.12027 19.1871 6.13506C19.1871 4.14985 17.5778 2.54053 15.5926 2.54053C13.6074 2.54053 11.998 4.14985 11.998 6.13506C11.998 8.12027 13.6074 9.72959 15.5926 9.72959Z" stroke="#FFEC95" stroke-width="1.7" stroke-linecap="round" stroke-linejoin="round"/>
</svg>
