<svg width="19" height="20" viewBox="0 0 19 20" fill="none" xmlns="http://www.w3.org/2000/svg">
<g clip-path="url(#clip0_75_5490)">
<path opacity="0.15" d="M3.76172 18.5415C3.76172 18.6236 3.91018 18.7049 4.19862 18.7807C4.48706 18.8565 4.90983 18.9254 5.4428 18.9834C5.97577 19.0415 6.6085 19.0875 7.30486 19.1189C8.00122 19.1503 8.74757 19.1665 9.5013 19.1665C10.255 19.1665 11.0014 19.1503 11.6977 19.1189C12.3941 19.0875 13.0268 19.0415 13.5598 18.9834C14.0928 18.9254 14.5155 18.8565 14.804 18.7807C15.0924 18.7049 15.2409 18.6236 15.2409 18.5415C15.2409 18.4594 15.0924 18.3782 14.804 18.3023C14.5155 18.2265 14.0928 18.1576 13.5598 18.0996C13.0268 18.0415 12.3941 17.9955 11.6977 17.9641C11.0014 17.9327 10.255 17.9165 9.5013 17.9165C8.74757 17.9165 8.00122 17.9327 7.30486 17.9641C6.6085 17.9955 5.97577 18.0415 5.4428 18.0996C4.90983 18.1576 4.48706 18.2265 4.19862 18.3023C3.91018 18.3782 3.76172 18.4594 3.76172 18.5415Z" fill="#45413C"/>
<path d="M7.04249 18.7041L0.978322 12.3249C0.940924 12.2937 0.911961 12.2527 0.894322 12.206C0.876682 12.1593 0.870983 12.1085 0.877791 12.0588C0.8846 12.009 0.903678 11.962 0.933125 11.9224C0.962572 11.8829 1.00136 11.8521 1.04561 11.8333L1.4177 11.6666C1.51953 11.6333 1.62858 11.6333 1.73041 11.6666L4.75061 12.3208L7.05436 14.7458L7.68374 17.9166C7.7045 18.0282 7.6949 18.1438 7.65603 18.2499L7.50561 18.6374C7.48787 18.6838 7.45881 18.7243 7.42137 18.755C7.38393 18.7857 7.33945 18.8055 7.29243 18.8122C7.24541 18.819 7.19753 18.8126 7.15363 18.7936C7.10974 18.7746 7.0714 18.7437 7.04249 18.7041Z" fill="#4ACFFF"/>
<path d="M5.79561 14.4748L6.25082 13.9123L4.75061 12.3207L1.73041 11.6665C1.62578 11.6425 1.51669 11.6527 1.4177 11.6957L1.04561 11.8498C1.00136 11.8687 0.962572 11.8994 0.933125 11.939C0.903678 11.9786 0.8846 12.0256 0.877791 12.0753C0.870983 12.1251 0.876682 12.1758 0.894322 12.2225C0.911961 12.2692 0.940924 12.3102 0.978322 12.3415L1.37416 12.7582H1.42166C1.52065 12.7152 1.62974 12.705 1.73436 12.729L4.75061 13.3623L5.79561 14.4748Z" fill="#80DDFF"/>
<path d="M7.04286 14.7457L6.84099 14.5332L4.37891 15.9082L5.64557 17.2374C5.83996 17.2384 6.03341 17.2089 6.21953 17.1499C6.6539 17.0038 7.0572 16.7703 7.40703 16.4624L7.04286 14.7457Z" fill="#00B8F0"/>
<path d="M7.04249 18.7041L0.978322 12.3249C0.940924 12.2937 0.911961 12.2527 0.894322 12.206C0.876682 12.1593 0.870983 12.1085 0.877791 12.0588C0.8846 12.009 0.903678 11.962 0.933125 11.9224C0.962572 11.8829 1.00136 11.8521 1.04561 11.8333L1.4177 11.6666C1.51953 11.6333 1.62858 11.6333 1.73041 11.6666L4.75061 12.3208L7.05436 14.7458L7.68374 17.9166C7.7045 18.0282 7.6949 18.1438 7.65603 18.2499L7.50561 18.6374C7.48787 18.6838 7.45881 18.7243 7.42137 18.755C7.38393 18.7857 7.33945 18.8055 7.29243 18.8122C7.24541 18.819 7.19753 18.8126 7.15363 18.7936C7.10974 18.7746 7.0714 18.7437 7.04249 18.7041Z" stroke="#45413C" stroke-linecap="round" stroke-linejoin="round"/>
<path d="M15.9715 11.179L16.7553 12.004C16.8068 12.0581 16.8476 12.1224 16.8754 12.1932C16.9033 12.264 16.9176 12.3399 16.9176 12.4165C16.9176 12.4931 16.9033 12.5689 16.8754 12.6397C16.8476 12.7105 16.8068 12.7748 16.7553 12.829L14.5972 15.0998L13.0297 13.4502L15.1878 11.1786C15.2393 11.1244 15.3004 11.0814 15.3676 11.0521C15.4348 11.0228 15.5069 11.0077 15.5797 11.0077C15.6525 11.0077 15.7245 11.0228 15.7918 11.0521C15.859 11.0814 15.9201 11.1248 15.9715 11.179ZM7.34238 2.10105L8.12613 2.92605C8.1776 2.98022 8.21842 3.04453 8.24628 3.11531C8.27413 3.18608 8.28846 3.26194 8.28846 3.33855C8.28846 3.41516 8.27413 3.49102 8.24628 3.5618C8.21842 3.63257 8.1776 3.69688 8.12613 3.75105L5.97082 6.0198L4.40332 4.3698L6.55863 2.10105C6.61009 2.04688 6.67119 2.0039 6.73842 1.97459C6.80566 1.94527 6.87773 1.93018 6.95051 1.93018C7.02329 1.93018 7.09535 1.94527 7.16259 1.97459C7.22983 2.0039 7.29092 2.04688 7.34238 2.10105Z" fill="#C0DCEB" stroke="#45413C" stroke-linecap="round" stroke-linejoin="round"/>
<path d="M14.9836 16.9957L11.2628 11.9957L7.34406 7.86649L2.59406 3.94982C2.51756 3.88668 2.45818 3.80346 2.42189 3.70852C2.3856 3.61359 2.37368 3.51028 2.38731 3.40895C2.40095 3.30763 2.43967 3.21187 2.49958 3.13128C2.55949 3.05069 2.63849 2.98811 2.72864 2.94982L3.48468 2.63315C3.68784 2.5456 3.91152 2.52525 4.12593 2.57482L10.293 3.96232L14.9916 8.91649L16.2939 15.379C16.3346 15.6057 16.3126 15.84 16.2305 16.054L15.9257 16.8498C15.8891 16.9432 15.8301 17.025 15.7544 17.0872C15.6787 17.1494 15.589 17.1898 15.4941 17.2045C15.3991 17.2192 15.3021 17.2077 15.2126 17.1711C15.1231 17.1345 15.0442 17.074 14.9836 16.9957Z" fill="#4ACFFF"/>
<path d="M14.6351 8.5415L14.9913 8.91234L15.4386 11.1332L12.3828 13.504L11.2665 12.0082L10.9736 11.704L14.6351 8.5415Z" fill="#00B8F0"/>
<path d="M10.5343 4.22084L9.80593 5.14167L4.14552 3.89167C3.92981 3.84177 3.70478 3.86211 3.50031 3.95001L2.88677 4.20834L2.60968 3.97917C2.53318 3.91603 2.47381 3.83281 2.43752 3.73788C2.40123 3.64294 2.3893 3.53963 2.40294 3.43831C2.41658 3.33699 2.45529 3.24122 2.5152 3.16063C2.57512 3.08004 2.65411 3.01746 2.74427 2.97917L3.50031 2.65834C3.7057 2.57458 3.92956 2.55434 4.14552 2.60001L10.2928 3.95834L10.5343 4.22084Z" fill="#80DDFF"/>
<path d="M14.9836 16.9957L11.2628 11.9957L7.34406 7.86649L2.59406 3.94982C2.51756 3.88668 2.45818 3.80346 2.42189 3.70852C2.3856 3.61359 2.37368 3.51028 2.38731 3.40895C2.40095 3.30763 2.43967 3.21187 2.49958 3.13128C2.55949 3.05069 2.63849 2.98811 2.72864 2.94982L3.48468 2.63315C3.68784 2.5456 3.91152 2.52525 4.12593 2.57482L10.293 3.96232L14.9916 8.91649L16.2939 15.379C16.3346 15.6057 16.3126 15.84 16.2305 16.054L15.9257 16.8498C15.8891 16.9432 15.8301 17.025 15.7544 17.0872C15.6787 17.1494 15.589 17.1898 15.4941 17.2045C15.3991 17.2192 15.3021 17.2077 15.2126 17.1711C15.1231 17.1345 15.0442 17.074 14.9836 16.9957Z" stroke="#45413C" stroke-linecap="round" stroke-linejoin="round"/>
<path d="M3.56354 14.5836L10.744 5.49191C10.9203 5.26926 11.1209 5.06927 11.3417 4.89608C13.0992 3.29608 15.7512 2.16691 16.9506 3.42941C17.1568 3.65141 17.3054 3.92544 17.3821 4.22524C17.5642 3.29191 17.4731 2.44191 16.9506 1.89191C15.7631 0.641909 13.0992 1.76274 11.3417 3.36274C11.12 3.53327 10.9193 3.732 10.744 3.95441L3.56354 13.0586C3.32017 13.3575 3.1573 13.7196 3.09187 14.1072C3.02643 14.4949 3.06082 14.8938 3.19146 15.2627C3.27855 15.0161 3.40432 14.7865 3.56354 14.5836Z" fill="white"/>
<path d="M15.5568 7.79978C17.0768 5.94978 18.1534 3.15811 16.9501 1.89145C15.7468 0.624778 13.0986 1.76228 11.3411 3.36228C11.1195 3.5328 10.9187 3.73153 10.7434 3.95394L3.56302 13.0581C3.22874 13.4561 3.04787 13.9712 3.05592 14.5024C3.06398 15.0336 3.26038 15.5424 3.60656 15.9289C3.97372 16.2931 4.45667 16.5 4.96102 16.5092C5.46538 16.5184 5.95488 16.3294 6.33386 15.9789L14.9947 8.42478C15.2049 8.24059 15.3936 8.03079 15.5568 7.79978Z" fill="#E8F4FA"/>
<path d="M15.5568 7.79978C17.0768 5.94978 18.1534 3.15811 16.9501 1.89145C15.7468 0.624778 13.0986 1.76228 11.3411 3.36228C11.1195 3.5328 10.9187 3.73153 10.7434 3.95394L3.56302 13.0581C3.22874 13.4561 3.04787 13.9712 3.05592 14.5024C3.06398 15.0336 3.26038 15.5424 3.60657 15.9289C3.97372 16.2931 4.45667 16.5 4.96102 16.5092C5.46538 16.5184 5.95488 16.3294 6.33386 15.9789L14.9947 8.42478C15.2049 8.24059 15.3936 8.03079 15.5568 7.79978Z" stroke="#45413C" stroke-linecap="round" stroke-linejoin="round"/>
<path d="M15.3715 3.55424C15.0401 3.21452 14.6373 2.96197 14.1957 2.81716C13.7541 2.67235 13.2862 2.63937 12.8302 2.72091L12.6956 3.97091C12.6901 4.01608 12.6947 4.06199 12.709 4.10496C12.7234 4.14793 12.7471 4.18676 12.7782 4.21835C12.8094 4.24994 12.8472 4.27341 12.8885 4.28688C12.9298 4.30035 12.9736 4.30344 13.0163 4.29591C13.4121 4.22508 14.0573 4.22924 14.3898 4.57924C14.7223 4.92924 14.7302 5.62508 14.659 6.02924C14.6518 6.07416 14.6548 6.12022 14.6676 6.16373C14.6803 6.20723 14.7026 6.24698 14.7327 6.27979C14.7627 6.3126 14.7996 6.33755 14.8404 6.35265C14.8812 6.36775 14.9248 6.37258 14.9677 6.36674L16.1552 6.22508C16.2315 5.74639 16.2003 5.25558 16.0642 4.79183C15.9281 4.32809 15.6909 3.90428 15.3715 3.55424Z" fill="#00B8F0"/>
<path d="M12.8302 2.71234L12.6956 3.96234C12.6901 4.00751 12.6947 4.05342 12.709 4.09639C12.7234 4.13936 12.7471 4.17819 12.7782 4.20978C12.8094 4.24138 12.8472 4.26485 12.8885 4.27831C12.9298 4.29178 12.9736 4.29487 13.0163 4.28734C13.2426 4.2482 13.4729 4.24119 13.7011 4.26651L15.3319 3.49568C15 3.17178 14.6017 2.93266 14.1679 2.79682C13.7341 2.66098 13.2764 2.63208 12.8302 2.71234Z" fill="#4ACFFF"/>
<path d="M15.3715 3.55424C15.0401 3.21452 14.6373 2.96197 14.1957 2.81716C13.7541 2.67235 13.2862 2.63937 12.8302 2.72091L12.6956 3.97091C12.6901 4.01608 12.6947 4.06199 12.709 4.10496C12.7234 4.14793 12.7471 4.18676 12.7782 4.21835C12.8094 4.24994 12.8472 4.27341 12.8885 4.28688C12.9298 4.30035 12.9736 4.30344 13.0163 4.29591C13.4121 4.22508 14.0573 4.22924 14.3898 4.57924C14.7223 4.92924 14.7302 5.62508 14.659 6.02924C14.6518 6.07416 14.6548 6.12022 14.6676 6.16373C14.6803 6.20723 14.7026 6.24698 14.7327 6.27979C14.7627 6.3126 14.7996 6.33755 14.8404 6.35265C14.8812 6.36775 14.9248 6.37258 14.9677 6.36674L16.1552 6.22508C16.2315 5.74639 16.2003 5.25558 16.0642 4.79183C15.9281 4.32809 15.6909 3.90428 15.3715 3.55424Z" stroke="#45413C" stroke-linecap="round" stroke-linejoin="round"/>
<path d="M15.5574 7.79985C16.0112 7.18448 16.2417 6.41901 16.2076 5.64085C16.1735 4.86269 15.877 4.1228 15.3714 3.55402C14.832 3.02112 14.1293 2.70889 13.3903 2.67374C12.6513 2.63859 11.9247 2.88284 11.3418 3.36235" stroke="#45413C" stroke-linecap="round" stroke-linejoin="round"/>
<path d="M3.61485 15.9291C3.56267 15.8745 3.52126 15.8096 3.493 15.7381C3.46474 15.6666 3.4502 15.5899 3.4502 15.5124C3.4502 15.435 3.46474 15.3583 3.493 15.2868C3.52126 15.2153 3.56267 15.1504 3.61485 15.0958L5.77214 12.8249C5.82412 12.7702 5.88583 12.7268 5.95375 12.6972C6.02167 12.6676 6.09446 12.6523 6.16797 12.6523C6.24149 12.6523 6.31428 12.6676 6.3822 12.6972C6.45012 12.7268 6.51183 12.7702 6.56381 12.8249C6.61579 12.8797 6.65702 12.9446 6.68516 13.0161C6.71329 13.0876 6.72777 13.1642 6.72777 13.2416C6.72777 13.319 6.71329 13.3956 6.68516 13.4671C6.65702 13.5386 6.61579 13.6035 6.56381 13.6583L4.40652 15.9291C4.35465 15.984 4.29297 16.0276 4.22504 16.0574C4.15711 16.0871 4.08426 16.1024 4.01068 16.1024C3.93711 16.1024 3.86426 16.0871 3.79633 16.0574C3.72839 16.0276 3.66672 15.984 3.61485 15.9291Z" fill="#4ACFFF" stroke="#45413C" stroke-linecap="round" stroke-linejoin="round"/>
</g>
<defs>
<clipPath id="clip0_75_5490">
<rect width="19" height="20" fill="white" transform="translate(0.000976562)"/>
</clipPath>
</defs>
</svg>
