<svg width="25" height="28" viewBox="0 0 25 28" fill="none" xmlns="http://www.w3.org/2000/svg">
<path d="M11.9951 1.2002C13.5633 1.19972 15.0902 1.70192 16.352 2.63309C17.6137 3.56426 18.5437 4.87536 19.0055 6.37396C19.4673 7.87255 19.4366 9.47971 18.9178 10.9595C18.399 12.4394 17.4195 13.714 16.1231 14.5962C18.3733 15.4215 20.325 16.9014 21.727 18.8454C23.129 20.7894 23.9171 23.1085 23.9898 25.5042C23.9966 25.6372 23.9768 25.7702 23.9315 25.8954C23.8862 26.0206 23.8163 26.1355 23.7261 26.2334C23.6358 26.3312 23.5268 26.4101 23.4057 26.4653C23.2845 26.5205 23.1535 26.5509 23.0204 26.5548C22.8873 26.5587 22.7548 26.536 22.6306 26.488C22.5064 26.44 22.393 26.3677 22.2972 26.2753C22.2013 26.1829 22.1248 26.0723 22.0723 25.95C22.0197 25.8276 21.9921 25.696 21.9911 25.5629C21.9117 22.9648 20.8238 20.4998 18.958 18.6901C17.0922 16.8804 14.5951 15.8683 11.9958 15.8683C9.39651 15.8683 6.89938 16.8804 5.03355 18.6901C3.16773 20.4998 2.07985 22.9648 2.00045 25.5629C1.99249 25.8281 1.87951 26.0793 1.68634 26.2612C1.49318 26.4431 1.23567 26.5408 0.970451 26.5329C0.705234 26.5249 0.454041 26.4119 0.272131 26.2188C0.0902203 26.0256 -0.00750607 25.7681 0.000450415 25.5029C0.0734479 23.1074 0.861643 20.7886 2.2636 18.8449C3.66555 16.9011 5.61711 15.4214 7.86712 14.5962C6.5707 13.714 5.59122 12.4394 5.07245 10.9595C4.55368 9.47971 4.52294 7.87255 4.98473 6.37396C5.44653 4.87536 6.37654 3.56426 7.63827 2.63309C8.89999 1.70192 10.427 1.19972 11.9951 1.2002ZM6.66179 8.53353C6.66179 9.94802 7.22369 11.3046 8.22388 12.3048C9.22408 13.305 10.5806 13.8669 11.9951 13.8669C13.4096 13.8669 14.7662 13.305 15.7664 12.3048C16.7666 11.3046 17.3285 9.94802 17.3285 8.53353C17.3285 7.11904 16.7666 5.76249 15.7664 4.76229C14.7662 3.7621 13.4096 3.2002 11.9951 3.2002C10.5806 3.2002 9.22408 3.7621 8.22388 4.76229C7.22369 5.76249 6.66179 7.11904 6.66179 8.53353Z" fill="black" stroke="black"/>
</svg>
