<svg width="19" height="19" viewBox="0 0 19 19" fill="none" xmlns="http://www.w3.org/2000/svg">
<g clip-path="url(#clip0_75_5514)">
<path d="M18.6668 18.9973H9.53774C9.50241 18.9973 9.46743 18.9906 9.4348 18.9777C9.40218 18.9647 9.37254 18.9457 9.3476 18.9217C9.32266 18.8977 9.3029 18.8693 9.28946 18.8379C9.27601 18.8066 9.26915 18.7731 9.26926 18.7392V18.7266L9.80622 8.47765C9.81021 8.41219 9.84015 8.35067 9.88989 8.30564C9.93964 8.26062 10.0054 8.23549 10.0739 8.2354H18.1299C18.2728 8.2354 18.3893 8.34228 18.3975 8.47686L18.932 18.6759C18.937 18.6949 18.9403 18.7171 18.9403 18.74C18.9403 18.8081 18.9121 18.8741 18.8619 18.9222C18.8117 18.9703 18.7436 18.9973 18.6726 18.9973H18.6718H18.6668ZM11.1511 10.3856C11.1527 10.7561 11.4063 11.0688 11.7558 11.1757L11.7616 11.1772C12.0433 12.4843 13.0123 13.4517 14.1638 13.4517C15.3154 13.4517 16.2827 12.4835 16.5628 11.1812C16.7502 11.1281 16.9135 11.0163 17.0267 10.8637C17.1399 10.711 17.1963 10.5264 17.1869 10.3394C17.1776 10.1523 17.1029 9.97373 16.975 9.83218C16.8471 9.69063 16.6733 9.59433 16.4815 9.55872C16.2897 9.52311 16.0909 9.55025 15.9171 9.63578C15.7433 9.72132 15.6045 9.8603 15.5229 10.0304C15.4413 10.2006 15.4217 10.3921 15.4672 10.5742C15.5127 10.7563 15.6207 10.9185 15.7739 11.0347L15.7755 11.0363C15.5706 11.9847 14.9255 12.6806 14.1605 12.6806C13.3956 12.6806 12.7537 11.9887 12.5472 11.0442C12.6638 10.9577 12.7555 10.8442 12.8137 10.7143C12.8719 10.5844 12.8946 10.4424 12.8798 10.3018C12.8649 10.1612 12.813 10.0265 12.7288 9.91041C12.6446 9.79434 12.531 9.70071 12.3987 9.63833C12.2663 9.57596 12.1196 9.5469 11.9722 9.55388C11.8249 9.56086 11.6819 9.60366 11.5566 9.67825C11.4313 9.75284 11.3279 9.85675 11.2561 9.98022C11.1843 10.1037 11.1464 10.2426 11.1461 10.384V10.3864L11.1511 10.3856ZM0.269041 17.9864C0.232566 17.9863 0.196486 17.9791 0.163001 17.9653C0.129517 17.9514 0.0993299 17.9312 0.0742834 17.9058C0.0492369 17.8803 0.0298559 17.8503 0.0173231 17.8175C0.00479027 17.7847 -0.000631481 17.7497 0.00138869 17.7148L0.748171 3.46957C0.752171 3.40411 0.782101 3.34258 0.831847 3.29756C0.881592 3.25253 0.947399 3.22741 1.01582 3.22732H2.83652C3.40735 1.32732 4.93065 0.000488281 6.70178 0.000488281C8.47291 0.000488281 9.99456 1.32811 10.5654 3.22574H12.2134C12.3555 3.22574 12.4728 3.33261 12.4803 3.4672L12.6959 7.59178H10.0739C9.57161 7.59178 9.16187 7.9694 9.13626 8.4444V8.44678L8.63648 17.9872L0.269041 17.9864ZM9.04456 4.49478C8.82971 4.629 8.6658 4.82609 8.57719 5.05674C8.48859 5.28739 8.48004 5.53929 8.5528 5.77498C8.62556 6.01066 8.77574 6.21755 8.98103 6.36488C9.18632 6.51221 9.43575 6.59211 9.69221 6.5927C9.97087 6.59386 10.2411 6.50124 10.4558 6.33099C10.6705 6.16073 10.816 5.92365 10.8669 5.6611C10.9179 5.39854 10.871 5.12719 10.7345 4.89436C10.598 4.66153 10.3806 4.48201 10.1201 4.38711L10.1119 4.38474C9.91691 2.28049 8.46217 0.640947 6.70261 0.640947C4.94304 0.640947 3.48252 2.28365 3.29004 4.39186C3.04112 4.48518 2.83225 4.65612 2.6971 4.87712C2.56195 5.09812 2.50841 5.35629 2.5451 5.61002C2.58179 5.86375 2.70659 6.09824 2.89935 6.27569C3.09212 6.45313 3.34163 6.56319 3.60766 6.58811C3.87368 6.61304 4.14071 6.55138 4.36569 6.41307C4.59067 6.27477 4.76049 6.06788 4.84777 5.82577C4.93504 5.58365 4.93469 5.32043 4.84677 5.07853C4.75885 4.83663 4.58848 4.63016 4.36313 4.49241L4.35817 4.49003C4.49695 2.90511 5.49487 1.6717 6.70261 1.6717C7.91035 1.6717 8.91074 2.90907 9.04704 4.49716L9.04456 4.49478ZM5.41887 3.22415H7.97974C7.87086 2.97785 7.69559 2.76372 7.47189 2.60374C7.24819 2.44375 6.98411 2.34366 6.70674 2.31374L6.6993 2.31295C6.12104 2.3739 5.64191 2.72857 5.423 3.21545L5.41887 3.22415ZM15.992 10.3634C15.9888 10.322 15.9946 10.2803 16.009 10.2411C16.0234 10.2019 16.0461 10.166 16.0756 10.1356C16.1052 10.1051 16.1409 10.0809 16.1807 10.0643C16.2204 10.0477 16.2633 10.0391 16.3067 10.0391C16.3501 10.0391 16.393 10.0477 16.4327 10.0643C16.4725 10.0809 16.5082 10.1051 16.5378 10.1356C16.5673 10.166 16.59 10.2019 16.6044 10.2411C16.6188 10.2803 16.6246 10.322 16.6214 10.3634C16.6145 10.4387 16.5783 10.5087 16.5201 10.5597C16.462 10.6108 16.386 10.639 16.3071 10.639C16.2282 10.639 16.1522 10.6108 16.0941 10.5597C16.0359 10.5087 15.9989 10.4387 15.992 10.3634ZM11.6765 10.3634C11.6765 10.3036 11.695 10.2451 11.7297 10.1954C11.7643 10.1457 11.8136 10.1069 11.8713 10.084C11.9289 10.0611 11.9924 10.0551 12.0536 10.0668C12.1148 10.0785 12.171 10.1073 12.2152 10.1496C12.2593 10.1919 12.2894 10.2457 12.3015 10.3044C12.3137 10.3631 12.3075 10.4239 12.2836 10.4791C12.2597 10.5344 12.2193 10.5816 12.1674 10.6149C12.1155 10.6481 12.0545 10.6658 11.992 10.6658C11.9089 10.665 11.8295 10.6328 11.771 10.5761C11.7126 10.5195 11.6798 10.4431 11.6798 10.3634H11.6765ZM9.21804 5.49782C9.21804 5.37867 9.26743 5.26439 9.35535 5.18014C9.44327 5.09588 9.56251 5.04855 9.68685 5.04855C9.81118 5.04855 9.93042 5.09588 10.0183 5.18014C10.1063 5.26439 10.1557 5.37867 10.1557 5.49782C10.1557 5.61698 10.1063 5.73125 10.0183 5.8155C9.93042 5.89976 9.81118 5.94709 9.68685 5.94709C9.56251 5.94709 9.44327 5.89976 9.35535 5.8155C9.26743 5.73125 9.21804 5.61698 9.21804 5.49782ZM3.24708 5.49782C3.24239 5.43597 3.25105 5.37385 3.27253 5.31535C3.29401 5.25685 3.32783 5.20322 3.3719 5.15781C3.41597 5.1124 3.46933 5.07617 3.52866 5.05141C3.58799 5.02664 3.652 5.01386 3.71671 5.01386C3.78143 5.01386 3.84544 5.02664 3.90477 5.05141C3.9641 5.07617 4.01746 5.1124 4.06153 5.15781C4.1056 5.20322 4.13942 5.25685 4.1609 5.31535C4.18237 5.37385 4.19104 5.43597 4.18635 5.49782C4.17646 5.61057 4.12275 5.71564 4.03584 5.79222C3.94894 5.8688 3.83519 5.9113 3.71713 5.9113C3.59907 5.9113 3.48532 5.8688 3.39841 5.79222C3.31151 5.71564 3.25697 5.61057 3.24708 5.49782Z" fill="#D99BFF"/>
</g>
<defs>
<clipPath id="clip0_75_5514">
<rect width="19" height="19" fill="white" transform="translate(0.000976562)"/>
</clipPath>
</defs>
</svg>
