<svg width="25" height="27" viewBox="0 0 25 27" fill="none" xmlns="http://www.w3.org/2000/svg">
<path d="M8.85482 13.5C10.8689 13.5 12.5007 11.7377 12.5007 9.5625C12.5007 7.38731 10.8689 5.625 8.85482 5.625C6.84076 5.625 5.20898 7.38731 5.20898 9.5625C5.20898 11.7377 6.84076 13.5 8.85482 13.5ZM20.3132 11.5313C20.3132 13.2407 19.0314 14.625 17.4486 14.625C16.6888 14.625 15.9602 14.2991 15.423 13.7189C14.8858 13.1387 14.584 12.3518 14.584 11.5313C14.584 9.82181 15.8658 8.4375 17.4486 8.4375C19.0314 8.4375 20.3132 9.82181 20.3132 11.5313ZM8.85482 14.625C10.2788 14.625 12.596 15.1037 14.1158 16.0566C14.7366 16.7389 15.1048 17.4831 15.1048 18.225V21.375H2.08398V18.225C2.08398 15.831 6.59492 14.625 8.85482 14.625ZM22.9173 21.375H16.1465V18.225C16.1465 17.4285 15.8803 16.695 15.4569 16.0408C16.2595 15.8473 17.0496 15.75 17.6533 15.75C19.5944 15.75 22.9173 16.7552 22.9173 18.7498V21.375Z" fill="#9747FF"/>
</svg>
