<svg width="18" height="19" viewBox="0 0 18 19" fill="none" xmlns="http://www.w3.org/2000/svg">
<g clip-path="url(#clip0_75_5455)">
<path d="M17.5264 5.39941H16.8936C16.7771 5.39941 16.6826 5.4991 16.6826 5.62207V7.92285C16.6826 8.04582 16.7771 8.14551 16.8936 8.14551H17.5264C17.6429 8.14551 17.7373 8.04582 17.7373 7.92285V5.62207C17.7373 5.4991 17.6429 5.39941 17.5264 5.39941Z" fill="#BCD44C"/>
<path d="M17.5264 5.39941H16.999C17.055 5.39941 17.1086 5.42287 17.1482 5.46463C17.1877 5.50638 17.21 5.56302 17.21 5.62207V7.92285C17.21 7.9819 17.1877 8.03854 17.1482 8.08029C17.1086 8.12205 17.055 8.14551 16.999 8.14551H17.5264C17.5823 8.14551 17.636 8.12205 17.6755 8.08029C17.7151 8.03854 17.7373 7.9819 17.7373 7.92285V5.62207C17.7373 5.56302 17.7151 5.50638 17.6755 5.46463C17.636 5.42287 17.5823 5.39941 17.5264 5.39941Z" fill="#AECE44"/>
<path d="M0.475586 8.14551H1.1084C1.2249 8.14551 1.31934 8.04582 1.31934 7.92285L1.31934 5.62207C1.31934 5.4991 1.2249 5.39941 1.1084 5.39941H0.475586C0.359088 5.39941 0.264648 5.4991 0.264648 5.62207L0.264648 7.92285C0.264648 8.04582 0.359088 8.14551 0.475586 8.14551Z" fill="#BCD44C"/>
<path d="M1.1084 5.39941H0.581055C0.636999 5.39941 0.690652 5.42287 0.73021 5.46463C0.769769 5.50638 0.791992 5.56302 0.791992 5.62207V7.92285C0.791992 7.9819 0.769769 8.03854 0.73021 8.08029C0.690652 8.12205 0.636999 8.14551 0.581055 8.14551H1.1084C1.16434 8.14551 1.218 8.12205 1.25755 8.08029C1.29711 8.03854 1.31934 7.9819 1.31934 7.92285V5.62207C1.31934 5.56302 1.29711 5.50638 1.25755 5.46463C1.218 5.42287 1.16434 5.39941 1.1084 5.39941Z" fill="#AECE44"/>
<path d="M14.415 0.27832H3.58691C3.00443 0.27832 2.53223 0.776753 2.53223 1.3916V15.085C2.53223 15.6998 3.00443 16.1982 3.58691 16.1982H14.415C14.9975 16.1982 15.4697 15.6998 15.4697 15.085V1.3916C15.4697 0.776753 14.9975 0.27832 14.415 0.27832Z" fill="#BCD44C"/>
<path d="M14.415 0.27832H12.833C13.1127 0.27832 13.381 0.395612 13.5788 0.604393C13.7766 0.813174 13.8877 1.09634 13.8877 1.3916V15.085C13.8877 15.3802 13.7766 15.6634 13.5788 15.8722C13.381 16.0809 13.1127 16.1982 12.833 16.1982H14.415C14.6948 16.1982 14.963 16.0809 15.1608 15.8722C15.3586 15.6634 15.4697 15.3802 15.4697 15.085V1.3916C15.4697 1.09634 15.3586 0.813174 15.1608 0.604393C14.963 0.395612 14.6948 0.27832 14.415 0.27832Z" fill="#AECE44"/>
<path d="M15.4697 3.17285V9.66699H2.53223V3.17285H15.4697Z" fill="#83C9EE"/>
<path d="M13.8877 3.17285H15.4697V9.66699H13.8877V3.17285Z" fill="#52BBE9"/>
<path d="M9.26465 3.17285V9.66699C9.26465 9.74081 9.23687 9.8116 9.18742 9.86379C9.13797 9.91599 9.07091 9.94531 9.00098 9.94531C8.93105 9.94531 8.86398 9.91599 8.81453 9.86379C8.76508 9.8116 8.7373 9.74081 8.7373 9.66699V3.17285H9.26465Z" fill="#A8D9F5"/>
<path d="M14.415 11.8936H3.58691C3.30719 11.8936 3.03893 11.7763 2.84114 11.5675C2.64335 11.3587 2.53223 11.0755 2.53223 10.7803V9.66699H15.4697V10.7803C15.4697 11.0755 15.3586 11.3587 15.1608 11.5675C14.963 11.7763 14.6948 11.8936 14.415 11.8936Z" fill="#AECE44"/>
<path d="M13.4307 15.085C13.9743 15.085 14.415 14.6198 14.415 14.0459C14.415 13.472 13.9743 13.0068 13.4307 13.0068C12.887 13.0068 12.4463 13.472 12.4463 14.0459C12.4463 14.6198 12.887 15.085 13.4307 15.085Z" fill="#FDDD5A"/>
<path d="M13.4307 13.0068C13.3415 13.0068 13.2528 13.0196 13.167 13.0448C13.3742 13.1057 13.5569 13.2365 13.6871 13.4172C13.8172 13.598 13.8877 13.8188 13.8877 14.0459C13.8877 14.273 13.8172 14.4938 13.6871 14.6746C13.5569 14.8553 13.3742 14.9861 13.167 15.047C13.3024 15.0867 13.4442 15.0954 13.5831 15.0724C13.7219 15.0495 13.8545 14.9954 13.9718 14.9139C14.0892 14.8324 14.1887 14.7253 14.2636 14.5998C14.3385 14.4743 14.3871 14.3333 14.4061 14.1863C14.4251 14.0394 14.4141 13.8898 14.3737 13.7477C14.3334 13.6057 14.2648 13.4743 14.1723 13.3626C14.0799 13.2508 13.9659 13.1613 13.838 13.0999C13.7101 13.0386 13.5712 13.0068 13.4307 13.0068Z" fill="#FED030"/>
<path d="M4.57129 15.085C5.11494 15.085 5.55566 14.6198 5.55566 14.0459C5.55566 13.472 5.11494 13.0068 4.57129 13.0068C4.02763 13.0068 3.58691 13.472 3.58691 14.0459C3.58691 14.6198 4.02763 15.085 4.57129 15.085Z" fill="#FDDD5A"/>
<path d="M4.57129 13.0068C4.48217 13.0068 4.39347 13.0196 4.30762 13.0448C4.51487 13.1057 4.69754 13.2365 4.82769 13.4172C4.95785 13.598 5.02831 13.8188 5.02831 14.0459C5.02831 14.273 4.95785 14.4938 4.82769 14.6746C4.69754 14.8553 4.51487 14.9861 4.30762 15.047C4.443 15.0867 4.58487 15.0954 4.7237 15.0724C4.86252 15.0495 4.99509 14.9954 5.11247 14.9139C5.22986 14.8324 5.32935 14.7253 5.40426 14.5998C5.47916 14.4743 5.52774 14.3333 5.54674 14.1863C5.56573 14.0394 5.5547 13.8898 5.51437 13.7477C5.47405 13.6057 5.40538 13.4743 5.31297 13.3626C5.22056 13.2508 5.10656 13.1613 4.97863 13.0999C4.8507 13.0386 4.71181 13.0068 4.57129 13.0068Z" fill="#FED030"/>
<path d="M3.62207 16.1982H5.94238V18.165C5.94238 18.3127 5.88682 18.4543 5.78793 18.5586C5.68903 18.663 5.5549 18.7217 5.41504 18.7217H4.14941C4.00955 18.7217 3.87542 18.663 3.77653 18.5586C3.67763 18.4543 3.62207 18.3127 3.62207 18.165V16.1982Z" fill="#787681"/>
<path d="M4.8877 16.1982V18.165C4.8877 18.3127 4.83214 18.4543 4.73324 18.5586C4.63434 18.663 4.50021 18.7217 4.36035 18.7217H5.41504C5.5549 18.7217 5.68903 18.663 5.78793 18.5586C5.88682 18.4543 5.94238 18.3127 5.94238 18.165V16.1982H4.8877Z" fill="#57565C"/>
<path d="M12.0596 16.1982H14.3799V18.165C14.3799 18.3127 14.3243 18.4543 14.2254 18.5586C14.1265 18.663 13.9924 18.7217 13.8525 18.7217H12.5869C12.4471 18.7217 12.3129 18.663 12.214 18.5586C12.1151 18.4543 12.0596 18.3127 12.0596 18.165V16.1982Z" fill="#787681"/>
<path d="M13.3252 16.1982V18.165C13.3252 18.3127 13.2696 18.4543 13.1707 18.5586C13.0718 18.663 12.9377 18.7217 12.7979 18.7217H13.8525C13.9924 18.7217 14.1265 18.663 14.2254 18.5586C14.3243 18.4543 14.3799 18.3127 14.3799 18.165V16.1982H13.3252Z" fill="#57565C"/>
<path d="M17.7373 19H0.264648C0.194718 19 0.127652 18.9707 0.0782043 18.9185C0.0287562 18.8663 0.000976563 18.7955 0.000976562 18.7217C0.000976563 18.6479 0.0287562 18.5771 0.0782043 18.5249C0.127652 18.4727 0.194718 18.4434 0.264648 18.4434H17.7373C17.8072 18.4434 17.8743 18.4727 17.9237 18.5249C17.9732 18.5771 18.001 18.6479 18.001 18.7217C18.001 18.7955 17.9732 18.8663 17.9237 18.9185C17.8743 18.9707 17.8072 19 17.7373 19Z" fill="#787681"/>
<path d="M10.8643 13.0068H7.1377C6.84645 13.0068 6.61035 13.2561 6.61035 13.5635V14.5283C6.61035 14.8357 6.84645 15.085 7.1377 15.085H10.8643C11.1555 15.085 11.3916 14.8357 11.3916 14.5283V13.5635C11.3916 13.2561 11.1555 13.0068 10.8643 13.0068Z" fill="white"/>
<path d="M10.8643 13.0068H9.28223C9.42209 13.0068 9.55622 13.0655 9.65511 13.1699C9.75401 13.2743 9.80957 13.4158 9.80957 13.5635V14.5283C9.80957 14.676 9.75401 14.8175 9.65511 14.9219C9.55622 15.0263 9.42209 15.085 9.28223 15.085H10.8643C11.0041 15.085 11.1382 15.0263 11.2371 14.9219C11.336 14.8175 11.3916 14.676 11.3916 14.5283V13.5635C11.3916 13.4158 11.336 13.2743 11.2371 13.1699C11.1382 13.0655 11.0041 13.0068 10.8643 13.0068Z" fill="#E1E1E3"/>
<path d="M13.8877 1.44727C13.8355 1.44727 13.7846 1.46359 13.7412 1.49417C13.6978 1.52475 13.6641 1.56822 13.6441 1.61908C13.6241 1.66993 13.6189 1.72589 13.6291 1.77988C13.6393 1.83387 13.6644 1.88346 13.7013 1.92239C13.7381 1.96131 13.7851 1.98782 13.8363 1.99856C13.8874 2.0093 13.9404 2.00379 13.9886 1.98272C14.0368 1.96166 14.078 1.92598 14.1069 1.88021C14.1359 1.83444 14.1514 1.78063 14.1514 1.72559C14.1514 1.65177 14.1236 1.58098 14.0741 1.52878C14.0247 1.47659 13.9576 1.44727 13.8877 1.44727ZM16.8936 5.12109C16.7677 5.12124 16.6471 5.17407 16.5581 5.26799C16.4691 5.36191 16.4191 5.48925 16.4189 5.62207V7.92285C16.4191 8.05567 16.4691 8.18301 16.5581 8.27693C16.6471 8.37085 16.7677 8.42368 16.8936 8.42383H17.5264C17.6522 8.42368 17.7728 8.37085 17.8618 8.27693C17.9508 8.18301 18.0008 8.05567 18.001 7.92285V5.62207C18.0008 5.48925 17.9508 5.36191 17.8618 5.26799C17.7728 5.17407 17.6522 5.12124 17.5264 5.12109H17.4736V4.5459C17.4735 4.40324 17.4197 4.26647 17.3242 4.1656C17.2286 4.06472 17.099 4.00798 16.9639 4.00781H15.7334V1.3916C15.733 1.02265 15.594 0.668933 15.3468 0.408046C15.0997 0.14716 14.7646 0.00041253 14.415 0L3.58691 0C3.23738 0.00041253 2.90228 0.14716 2.65512 0.408046C2.40797 0.668933 2.26895 1.02265 2.26855 1.3916V4.00781H1.03809C0.902936 4.00798 0.773367 4.06472 0.677802 4.1656C0.582237 4.26647 0.528479 4.40324 0.52832 4.5459V5.12109H0.475586C0.349755 5.12124 0.229117 5.17407 0.140141 5.26799C0.0511643 5.36191 0.00111614 5.48925 0.000976562 5.62207L0.000976563 7.92285C0.00111614 8.05567 0.0511643 8.18301 0.140141 8.27693C0.229117 8.37085 0.349755 8.42368 0.475586 8.42383H1.1084C1.23423 8.42368 1.35487 8.37085 1.44384 8.27693C1.53282 8.18301 1.58287 8.05567 1.58301 7.92285V5.62207C1.58287 5.48925 1.53282 5.36191 1.44384 5.26799C1.35487 5.17407 1.23423 5.12124 1.1084 5.12109H1.05566V4.56445H2.26855V15.085C2.26898 15.4121 2.3784 15.7286 2.57765 15.9791C2.77689 16.2296 3.05327 16.3981 3.3584 16.4552V18.165C3.35836 18.2599 3.3737 18.354 3.40375 18.4434H0.264648C0.194718 18.4434 0.127652 18.4727 0.0782043 18.5249C0.0287562 18.5771 0.000976563 18.6479 0.000976563 18.7217C0.000976563 18.7955 0.0287562 18.8663 0.0782043 18.9185C0.127652 18.9707 0.194718 19 0.264648 19H17.7373C17.8072 19 17.8743 18.9707 17.9237 18.9185C17.9732 18.8663 18.001 18.7955 18.001 18.7217C18.001 18.6479 17.9732 18.5771 17.9237 18.5249C17.8743 18.4727 17.8072 18.4434 17.7373 18.4434H14.5982C14.6283 18.354 14.6436 18.2599 14.6436 18.165V16.4552C14.9487 16.3981 15.2251 16.2296 15.4243 15.9791C15.6236 15.7286 15.733 15.4121 15.7334 15.085V4.56445H16.9463V5.12109H16.8936ZM1.05566 7.86719H0.52832V5.67773H1.05566V7.86719ZM2.7959 3.45117H8.7373V9.38867H2.7959V3.45117ZM5.67871 18.165C5.67864 18.2388 5.65083 18.3096 5.6014 18.3618C5.55197 18.4139 5.48495 18.4433 5.41504 18.4434H4.14941C4.07951 18.4433 4.01248 18.4139 3.96305 18.3618C3.91362 18.3096 3.88582 18.2388 3.88574 18.165V16.4766H5.67871V18.165ZM6.1607 18.4434C6.19075 18.354 6.20609 18.2599 6.20605 18.165V16.4766H11.7959V18.165C11.7959 18.2599 11.8112 18.354 11.8413 18.4434H6.1607ZM14.1162 18.165C14.1161 18.2388 14.0883 18.3096 14.0389 18.3618C13.9895 18.4139 13.9224 18.4433 13.8525 18.4434H12.5869C12.517 18.4433 12.45 18.4139 12.4006 18.3618C12.3511 18.3096 12.3233 18.2388 12.3232 18.165V16.4766H14.1162V18.165ZM15.2061 15.085C15.2058 15.3063 15.1224 15.5186 14.9741 15.6751C14.8258 15.8316 14.6248 15.9197 14.415 15.9199H3.58691C3.3772 15.9197 3.17614 15.8316 3.02785 15.6751C2.87956 15.5186 2.79614 15.3063 2.7959 15.085V11.8928C3.02378 12.0742 3.3015 12.1722 3.58691 12.1719H14.415C14.7005 12.1722 14.9782 12.0742 15.2061 11.8928V15.085ZM15.2061 10.7803C15.2058 11.0016 15.1224 11.2139 14.9741 11.3704C14.8258 11.5269 14.6248 11.615 14.415 11.6152H3.58691C3.3772 11.615 3.17614 11.5269 3.02785 11.3704C2.87956 11.2139 2.79614 11.0016 2.7959 10.7803V9.94531H15.2061V10.7803ZM15.2061 9.38867H9.26465V3.45117H15.2061V9.38867ZM15.2061 2.89453H2.7959V1.3916C2.79614 1.17023 2.87956 0.958007 3.02785 0.801477C3.17614 0.644947 3.3772 0.556896 3.58691 0.556641H14.415C14.6248 0.556896 14.8258 0.644947 14.9741 0.801477C15.1224 0.958007 15.2058 1.17023 15.2061 1.3916V2.89453ZM17.4736 5.67773V7.86719H16.9463V5.67773H17.4736ZM10.8643 12.7285H7.1377C6.92798 12.7288 6.72692 12.8168 6.57863 12.9734C6.43034 13.1299 6.34692 13.3421 6.34668 13.5635V14.5283C6.34692 14.7497 6.43034 14.9619 6.57863 15.1184C6.72692 15.275 6.92798 15.363 7.1377 15.3633H10.8643C11.074 15.363 11.275 15.275 11.4233 15.1184C11.5716 14.9619 11.655 14.7497 11.6553 14.5283V13.5635C11.655 13.3421 11.5716 13.1299 11.4233 12.9734C11.275 12.8168 11.074 12.7288 10.8643 12.7285ZM11.1279 14.5283C11.1279 14.6021 11.1001 14.6729 11.0506 14.725C11.0012 14.7772 10.9342 14.8066 10.8643 14.8066H7.1377C7.06779 14.8066 7.00077 14.7772 6.95133 14.725C6.9019 14.6729 6.8741 14.6021 6.87402 14.5283V13.5635C6.8741 13.4897 6.9019 13.4189 6.95133 13.3668C7.00077 13.3146 7.06779 13.2852 7.1377 13.2852H10.8643C10.9342 13.2852 11.0012 13.3146 11.0506 13.3668C11.1001 13.4189 11.1279 13.4897 11.1279 13.5635V14.5283ZM4.57129 12.7285C4.32445 12.7285 4.08315 12.8058 3.87791 12.9505C3.67267 13.0953 3.51271 13.301 3.41824 13.5418C3.32378 13.7825 3.29907 14.0474 3.34722 14.3029C3.39538 14.5585 3.51424 14.7932 3.68879 14.9774C3.86333 15.1617 4.08571 15.2871 4.32781 15.338C4.5699 15.3888 4.82085 15.3627 5.0489 15.263C5.27695 15.1633 5.47186 14.9944 5.609 14.7778C5.74614 14.5612 5.81934 14.3065 5.81934 14.0459C5.81896 13.6966 5.68735 13.3618 5.45338 13.1148C5.21941 12.8678 4.90218 12.7289 4.57129 12.7285ZM4.57129 14.8066C4.42875 14.8066 4.28941 14.762 4.17089 14.6784C4.05237 14.5948 3.95999 14.476 3.90545 14.337C3.8509 14.198 3.83663 14.0451 3.86443 13.8975C3.89224 13.7499 3.96088 13.6144 4.06168 13.508C4.16247 13.4016 4.29088 13.3291 4.43069 13.2998C4.57049 13.2704 4.7154 13.2855 4.84709 13.3431C4.97878 13.4006 5.09134 13.4981 5.17053 13.6233C5.24972 13.7484 5.29199 13.8954 5.29199 14.0459C5.29178 14.2476 5.21578 14.441 5.08067 14.5836C4.94556 14.7262 4.76237 14.8064 4.57129 14.8066ZM13.4307 12.7285C13.1838 12.7285 12.9425 12.8058 12.7373 12.9505C12.532 13.0953 12.3721 13.301 12.2776 13.5418C12.1832 13.7825 12.1584 14.0474 12.2066 14.3029C12.2548 14.5585 12.3736 14.7932 12.5482 14.9774C12.7227 15.1617 12.9451 15.2871 13.1872 15.338C13.4293 15.3888 13.6802 15.3627 13.9083 15.263C14.1363 15.1633 14.3312 14.9944 14.4684 14.7778C14.6055 14.5612 14.6787 14.3065 14.6787 14.0459C14.6783 13.6966 14.5467 13.3618 14.3128 13.1148C14.0788 12.8678 13.7616 12.7289 13.4307 12.7285ZM13.4307 14.8066C13.2881 14.8066 13.1488 14.762 13.0303 14.6784C12.9117 14.5948 12.8194 14.476 12.7648 14.337C12.7103 14.198 12.696 14.0451 12.7238 13.8975C12.7516 13.7499 12.8203 13.6144 12.9211 13.508C13.0218 13.4016 13.1503 13.3291 13.2901 13.2998C13.4299 13.2704 13.5748 13.2855 13.7065 13.3431C13.8382 13.4006 13.9507 13.4981 14.0299 13.6233C14.1091 13.7484 14.1514 13.8954 14.1514 14.0459C14.1512 14.2476 14.0752 14.441 13.94 14.5836C13.8049 14.7262 13.6217 14.8064 13.4307 14.8066ZM4.09573 1.44727C4.04358 1.44727 3.9926 1.46359 3.94924 1.49417C3.90588 1.52475 3.87209 1.56822 3.85213 1.61908C3.83217 1.66993 3.82695 1.72589 3.83713 1.77988C3.8473 1.83387 3.87241 1.88346 3.90929 1.92239C3.94616 1.96131 3.99314 1.98782 4.04429 1.99856C4.09544 2.0093 4.14845 2.00379 4.19663 1.98272C4.24481 1.96166 4.28599 1.92598 4.31497 1.88021C4.34394 1.83444 4.3594 1.78063 4.3594 1.72559C4.3594 1.65177 4.33162 1.58098 4.28217 1.52878C4.23273 1.47659 4.16566 1.44727 4.09573 1.44727ZM12.4463 1.44727H5.55566C5.48573 1.44727 5.41867 1.47659 5.36922 1.52878C5.31977 1.58098 5.29199 1.65177 5.29199 1.72559C5.29199 1.7994 5.31977 1.87019 5.36922 1.92239C5.41867 1.97458 5.48573 2.00391 5.55566 2.00391H12.4463C12.5162 2.00391 12.5833 1.97458 12.6327 1.92239C12.6822 1.87019 12.71 1.7994 12.71 1.72559C12.71 1.65177 12.6822 1.58098 12.6327 1.52878C12.5833 1.47659 12.5162 1.44727 12.4463 1.44727Z" fill="#3C3B41"/>
</g>
<defs>
<clipPath id="clip0_75_5455">
<rect width="18" height="19" fill="white" transform="translate(0.000976562)"/>
</clipPath>
</defs>
</svg>
